<?xml version="1.0" encoding="UTF-8" standalone="no"?>
<svg
   xmlns:dc="http://purl.org/dc/elements/1.1/"
   xmlns:cc="http://creativecommons.org/ns#"
   xmlns:rdf="http://www.w3.org/1999/02/22-rdf-syntax-ns#"
   xmlns:svg="http://www.w3.org/2000/svg"
   xmlns="http://www.w3.org/2000/svg"
   xmlns:sodipodi="http://sodipodi.sourceforge.net/DTD/sodipodi-0.dtd"
   xmlns:inkscape="http://www.inkscape.org/namespaces/inkscape"
   sodipodi:docname="drawing.svg"
   inkscape:version="1.0 (4035a4fb49, 2020-05-01)"
   id="svg257"
   version="1.1"
   viewBox="0 0 359.83333 203.20001"
   height="768"
   width="1360">
  <defs
     id="defs251" />
  <sodipodi:namedview
     inkscape:window-maximized="0"
     inkscape:window-y="220"
     inkscape:window-x="627"
     inkscape:window-height="736"
     inkscape:window-width="747"
     units="px"
     showgrid="false"
     inkscape:document-rotation="0"
     inkscape:current-layer="layer1"
     inkscape:document-units="px"
     inkscape:cy="944.2785"
     inkscape:cx="418.28773"
     inkscape:zoom="0.24748737"
     inkscape:pageshadow="2"
     inkscape:pageopacity="0.0"
     borderopacity="1.0"
     bordercolor="#666666"
     pagecolor="#ffffff"
     id="base" />
  <metadata
     id="metadata254">
    <rdf:RDF>
      <cc:Work
         rdf:about="">
        <dc:format>image/svg+xml</dc:format>
        <dc:type
           rdf:resource="http://purl.org/dc/dcmitype/StillImage" />
        <dc:title></dc:title>
      </cc:Work>
    </rdf:RDF>
  </metadata>
  <g
     id="layer1"
     inkscape:groupmode="layer"
     inkscape:label="Layer 1">
    <g
       transform="translate(-0.75213168,-5.941693)"
       id="g354">
      <g
         transform="matrix(0,2.6334675,2.6333547,0,120.30705,84.020701)"
         id="g7843"
         style="fill:#0081c8;fill-opacity:1">
        <path
           d="m -0.1,-0.1 c -10.9,0 -19.7,-8.8 -19.7,-19.7 0,-10.9 8.8,-19.7 19.7,-19.7 10.9,0 19.7,8.8 19.7,19.7 0,0.6 0,1.1 -0.1,1.7 -0.5,0 -1,-0.1 -1.6,-0.1 -0.6,0 -1.2,0 -1.7,0.1 0.1,-0.6 0.1,-1.1 0.1,-1.7 0,-9.1 -7.4,-16.4 -16.4,-16.4 -9.1,0 -16.4,7.4 -16.4,16.4 0,9.1 7.4,16.4 16.4,16.4 7.3,0 13.5,-4.8 15.6,-11.3 0.8,-0.1 1.6,-0.2 2.4,-0.2 h 1 c -2.1,8.6 -9.8,14.8 -19,14.8"
           class="st0"
           id="path7845"
           style="fill:#0081c8;fill-opacity:1" />
      </g>
      <g
         transform="matrix(0,2.6334675,2.6333547,0,345.3114,84.020701)"
         id="g7847"
         style="fill:#ee334e;fill-opacity:1">
        <path
           d="m -0.1,-0.1 c 10.9,0 19.7,-8.8 19.7,-19.7 0,-10.3 -7.9,-18.7 -18,-19.6 0.1,1.2 0.4,2.3 0.7,3.4 7.9,1.2 14,8 14,16.2 0.1,9.1 -7.3,16.4 -16.4,16.4 -9.1,0 -16.4,-7.4 -16.4,-16.4 0,-8.7 6.8,-15.9 15.4,-16.4 -0.3,-1.1 -0.5,-2.1 -0.6,-3.3 -10.2,0.8 -18.1,9.3 -18.1,19.7 0,10.9 8.8,19.7 19.7,19.7"
           class="st1"
           id="path7849"
           style="fill:#ee334e;fill-opacity:1" />
      </g>
      <g
         transform="matrix(0,2.6334675,2.6333547,0,280.32022,134.22285)"
         id="g7851"
         style="fill:#00a650;fill-opacity:1">
        <path
           d="m -0.1,-0.1 c 8.6,-0.5 15.4,-7.7 15.4,-16.4 0,-9.1 -7.4,-16.4 -16.4,-16.4 -7.3,0 -13.4,4.7 -15.6,11.3 -0.8,0.1 -1.6,0.2 -2.5,0.2 h -1 c 2.2,-8.5 9.9,-14.8 19.1,-14.8 10.9,0 19.7,8.9 19.7,19.7 0,10.3 -8,18.8 -18.1,19.6 C 0.4,2.1 0.2,1 -0.1,-0.1 Z m -17.4,-16.4 c 0,8.2 6.1,15 14,16.2 0.3,1.2 0.6,2.3 0.7,3.5 -10.1,-0.9 -18,-9.4 -18,-19.6 0,-0.6 0,-1.2 0.1,-1.7 h 1.6 c 0.6,0 1.2,0 1.7,-0.1 -0.1,0.6 -0.1,1.1 -0.1,1.7"
           class="st2"
           id="path7853"
           style="fill:#00a650;fill-opacity:1" />
      </g>
      <g
         transform="matrix(0,2.6334675,2.6333547,0,176.38065,135.72292)"
         id="g7855"
         style="fill:#fcb131;fill-opacity:1">
        <path
           d="M -0.1,-0.1 C 10.1,-0.9 18,-9.4 18,-19.8 18,-30.7 9.2,-39.5 -1.7,-39.5 c -9.2,0 -16.9,6.3 -19.1,14.7 h 1 c 0.8,0 1.6,-0.1 2.5,-0.2 2.2,-6.5 8.3,-11.3 15.6,-11.3 9.1,0 16.4,7.4 16.4,16.4 0.1,8.9 -6.7,16.1 -15.3,16.6 0.2,1 0.4,2.1 0.5,3.2 z M -18,-21.4 h -3.3 c 0,0.6 -0.1,1.1 -0.1,1.7 0,10.3 7.9,18.8 18,19.7 -0.1,-1.2 -0.4,-2.3 -0.7,-3.4 -7.9,-1.2 -14,-8 -14,-16.3 0,-0.6 0.1,-1.2 0.1,-1.7"
           class="st3"
           id="path7857"
           style="fill:#fcb131;fill-opacity:1" />
      </g>
      <g
         transform="matrix(0,2.6334675,2.6333547,0,180.89949,127.32256)"
         id="g7859">
        <path
           d="m -0.1,-0.1 c 0,-8.2 -6.1,-15.1 -14,-16.3 -0.3,-1.1 -0.6,-2.2 -0.7,-3.4 10.1,0.9 18,9.3 18,19.6 0,0.5 0,1.1 -0.1,1.7 -0.5,0 -1,-0.1 -1.6,-0.1 -0.6,0 -1.2,0 -1.7,0.1 0.1,-0.4 0.1,-1 0.1,-1.6 z m -36.1,0 c 0,-10.4 8,-18.8 18.1,-19.6 0.1,1.1 0.3,2.2 0.6,3.3 -8.6,0.5 -15.4,7.6 -15.4,16.4 0,9.1 7.4,16.4 16.4,16.4 C -9.2,16.3 -3,11.6 -0.9,5 -0.1,4.9 0.7,4.8 1.5,4.8 h 1 c -2.2,8.5 -9.9,14.7 -19.1,14.7 -10.8,0.1 -19.6,-8.7 -19.6,-19.6"
           class="st4"
           id="path7861" />
      </g>
    </g>
  </g>
</svg>
