<?xml version="1.0" encoding="UTF-8" standalone="no"?>
<svg
   xmlns:dc="http://purl.org/dc/elements/1.1/"
   xmlns:cc="http://creativecommons.org/ns#"
   xmlns:rdf="http://www.w3.org/1999/02/22-rdf-syntax-ns#"
   xmlns:svg="http://www.w3.org/2000/svg"
   xmlns="http://www.w3.org/2000/svg"
   xmlns:sodipodi="http://sodipodi.sourceforge.net/DTD/sodipodi-0.dtd"
   xmlns:inkscape="http://www.inkscape.org/namespaces/inkscape"
   inkscape:version="1.0 (4035a4fb49, 2020-05-01)"
   sodipodi:docname="tokyo-2020.svg"
   version="1.1"
   height="2500"
   width="1534"
   viewBox="0 0 999 1627.8"
   id="svg9666">
  <metadata
     id="metadata213">
    <rdf:RDF>
      <cc:Work
         rdf:about="">
        <dc:format>image/svg+xml</dc:format>
        <dc:type
           rdf:resource="http://purl.org/dc/dcmitype/StillImage" />
      </cc:Work>
    </rdf:RDF>
  </metadata>
  <defs
     id="defs211" />
  <sodipodi:namedview
     inkscape:current-layer="g9199"
     inkscape:window-maximized="0"
     inkscape:window-y="212"
     inkscape:window-x="-8"
     inkscape:cy="1488.5183"
     inkscape:cx="767"
     inkscape:zoom="0.2384"
     showgrid="false"
     id="namedview209"
     inkscape:window-height="745"
     inkscape:window-width="733"
     inkscape:pageshadow="2"
     inkscape:pageopacity="0"
     guidetolerance="10"
     gridtolerance="10"
     objecttolerance="10"
     borderopacity="1"
     bordercolor="#666666"
     pagecolor="#ffffff" />
  <style
     id="style2">.st0{fill:#0081c8}.st1{fill:#ee334e}.st2{fill:#00a650}.st3{fill:#fcb131}.st4{fill:#231f20}.st5{fill:#00ab4e}.st6{fill:#6b378b}.st7{fill:#ed1c24}.st8{fill:#008fd4}</style>
  <g
     transform="matrix(5.89417 0 0 5.89417 -3405.182 -2643.838)"
     id="layer1">
    <g
       transform="matrix(.87974 0 0 .87974 92.935 323.036)"
       id="g9199">
      <g
         transform="matrix(0,1.25,1.2500001,0,618.724,409.47)"
         id="g7843">
        <path
           d="m -0.1,-0.1 c -10.9,0 -19.7,-8.8 -19.7,-19.7 0,-10.9 8.8,-19.7 19.7,-19.7 10.9,0 19.7,8.8 19.7,19.7 0,0.6 0,1.1 -0.1,1.7 -0.5,0 -1,-0.1 -1.6,-0.1 -0.6,0 -1.2,0 -1.7,0.1 0.1,-0.6 0.1,-1.1 0.1,-1.7 0,-9.1 -7.4,-16.4 -16.4,-16.4 -9.1,0 -16.4,7.4 -16.4,16.4 0,9.1 7.4,16.4 16.4,16.4 7.3,0 13.5,-4.8 15.6,-11.3 0.8,-0.1 1.6,-0.2 2.4,-0.2 h 1 c -2.1,8.6 -9.8,14.8 -19,14.8"
           class="st0"
           id="path7845" />
      </g>
      <g
         transform="matrix(0,1.25,1.2500001,0,725.529,409.47)"
         id="g7847">
        <path
           d="m -0.1,-0.1 c 10.9,0 19.7,-8.8 19.7,-19.7 0,-10.3 -7.9,-18.7 -18,-19.6 0.1,1.2 0.4,2.3 0.7,3.4 7.9,1.2 14,8 14,16.2 0.1,9.1 -7.3,16.4 -16.4,16.4 -9.1,0 -16.4,-7.4 -16.4,-16.4 0,-8.7 6.8,-15.9 15.4,-16.4 -0.3,-1.1 -0.5,-2.1 -0.6,-3.3 -10.2,0.8 -18.1,9.3 -18.1,19.7 0,10.9 8.8,19.7 19.7,19.7"
           class="st1"
           id="path7849" />
      </g>
      <g
         transform="matrix(0,1.25,1.2500001,0,694.67901,433.302)"
         id="g7851">
        <path
           d="m -0.1,-0.1 c 8.6,-0.5 15.4,-7.7 15.4,-16.4 0,-9.1 -7.4,-16.4 -16.4,-16.4 -7.3,0 -13.4,4.7 -15.6,11.3 -0.8,0.1 -1.6,0.2 -2.5,0.2 h -1 c 2.2,-8.5 9.9,-14.8 19.1,-14.8 10.9,0 19.7,8.9 19.7,19.7 0,10.3 -8,18.8 -18.1,19.6 C 0.4,2.1 0.2,1 -0.1,-0.1 Z m -17.4,-16.4 c 0,8.2 6.1,15 14,16.2 0.3,1.2 0.6,2.3 0.7,3.5 -10.1,-0.9 -18,-9.4 -18,-19.6 0,-0.6 0,-1.2 0.1,-1.7 h 1.6 c 0.6,0 1.2,0 1.7,-0.1 -0.1,0.6 -0.1,1.1 -0.1,1.7"
           class="st2"
           id="path7853" />
      </g>
      <g
         transform="matrix(0,1.25,1.2500001,0,645.341,434.013)"
         id="g7855">
        <path
           d="M -0.1,-0.1 C 10.1,-0.9 18,-9.4 18,-19.8 18,-30.7 9.2,-39.5 -1.7,-39.5 c -9.2,0 -16.9,6.3 -19.1,14.7 h 1 c 0.8,0 1.6,-0.1 2.5,-0.2 2.2,-6.5 8.3,-11.3 15.6,-11.3 9.1,0 16.4,7.4 16.4,16.4 0.1,8.9 -6.7,16.1 -15.3,16.6 0.2,1 0.4,2.1 0.5,3.2 z M -18,-21.4 h -3.3 c 0,0.6 -0.1,1.1 -0.1,1.7 0,10.3 7.9,18.8 18,19.7 -0.1,-1.2 -0.4,-2.3 -0.7,-3.4 -7.9,-1.2 -14,-8 -14,-16.3 0,-0.6 0.1,-1.2 0.1,-1.7"
           class="st3"
           id="path7857" />
      </g>
      <g
         transform="matrix(0,1.25,1.2500001,0,647.486,430.005)"
         id="g7859">
        <path
           d="m -0.1,-0.1 c 0,-8.2 -6.1,-15.1 -14,-16.3 -0.3,-1.1 -0.6,-2.2 -0.7,-3.4 10.1,0.9 18,9.3 18,19.6 0,0.5 0,1.1 -0.1,1.7 -0.5,0 -1,-0.1 -1.6,-0.1 -0.6,0 -1.2,0 -1.7,0.1 0.1,-0.4 0.1,-1 0.1,-1.6 z m -36.1,0 c 0,-10.4 8,-18.8 18.1,-19.6 0.1,1.1 0.3,2.2 0.6,3.3 -8.6,0.5 -15.4,7.6 -15.4,16.4 0,9.1 7.4,16.4 16.4,16.4 C -9.2,16.3 -3,11.6 -0.9,5 -0.1,4.9 0.7,4.8 1.5,4.8 h 1 c -2.2,8.5 -9.9,14.7 -19.1,14.7 -10.8,0.1 -19.6,-8.7 -19.6,-19.6"
           class="st4"
           id="path7861" />
      </g>
      <g
         transform="matrix(0 1.25 1.25 0 626.91 254.852)"
         id="g7863">
        <path
           d="M-.1-.1c-.6-1-1-2.6-1-4.4 0-2.3.5-4.7 1.5-6.9C1.5-14 3.6-16 5-17.1c-.1.5-.3 1.2-.3 2 0 1.1.3 2.3.8 3.5-.1.1-.1.2-.2.3-.4.6-.3 1 .3 1.4.3.2.7.4 1.1.3.2 0 .3-.1.4-.3.2-.3.4-.8.4-1.2 0-.5-.3-.8-.7-.9h-.4c-.3-.7-.4-1.6-.4-2.6 0-.7 0-1.4.2-2.1.3 1.2.9 2.8 1.8 4 .4.5.9 1 1.5 1.6C11.3-9.4 13.9-7 14-2.9c.2 3.3-2 5.4-2.8 5.9-1.6 1-3.4-1.9-3.5-2-.1-.1-.3-.2-.5-.2-.1.1-.3.2-.3.4-.1 1-.6 2.9-1.4 3-1 .2-3.3-.8-5.6-4.3"
           class="st5"
           id="path7865" />
      </g>
      <g
         transform="matrix(0 1.25 1.25 0 604.791 255.564)"
         id="g7867">
        <path
           d="M-.1-.1c-.3.2-.5.4-.7.5L-1 .3c-.3-.1-.7-.1-1 .1l-.1.1c-.3.2-.9.6-.9 1.2 0 0 0 .2.1.3.1.3.3.6.6.7.3.1.7 0 1.1-.2.7-.5 1.1-.9 1.1-1.3C.4.8 1.2.4 2.4 0c.3-.1.6-.2.9-.2C-2.6 5.3-2.6 11-2.6 12.9v2.3c-1.5 1.2-3.5 1.6-5.4 1.2-1.2-.3-1.9-.7-2.1-1.1-.4-.7-.6-1.5-.6-2.3 0-1.2.4-2 .4-2 .1-.2 0-.4-.1-.6-.2-.1-.4-.1-.5 0 0 0-.7.6-1.4.6-.3 0-.6-.2-.8-.5-.3-.3-.4-1-.4-1.8 0-2.4 1.4-7.4 6.9-9.8C-3.1-2.7.8-2 3-1.4 1.9-1.2.9-.8-.1-.1"
           class="st5"
           id="path7869" />
      </g>
      <g
         transform="matrix(0 1.25 1.25 0 593.317 260.743)"
         id="g7871">
        <path
           d="M-.1-.1c0 2.8.3 4.8.6 6.1-.7-.2-2.4-.9-3.2-2.7.2-.2.3-.5.3-.7 0-.1 0-.2-.1-.3l-.1-.2c-.1-.3-.3-.8-.7-1-.1 0-.4 0-.7.1-.4.2-.6.6-.6 1.2 0 .7.4 1.4 1.1 1.4h.1c.2 1 .8 1.7 1.4 2.2.5.5 1.2.9 1.7 1.2-.5-.1-1.2-.3-2.1-.6-2-.6-4-.7-5.8-.7-1.4 0-2.6-.1-3.6-.4-3.6-1-5-4.2-4.8-5.3.2-.9 1.6-1.5 2.2-1.7.2-.1.3-.2.3-.3 0-.1 0-.3-.1-.4-.3-.3-.9-1.1-.9-1.9v-.3c.6-2.5 6.4-4.4 9.5-3.6C-1.9-6.9-.1-4.5-.1-.1"
           class="st5"
           id="path7873" />
      </g>
      <g
         transform="matrix(0 1.25 1.25 0 616.547 271.78)"
         id="g7875">
        <path
           d="M-.1-.1c-.7-1.2-1.7-2.1-2.5-2.8-.8-.7-1.6-1.5-2.3-2.4-.5-.8-1.1-2.4-1.5-3.6.1 0 .2.1.3.1 1.4.4 2 .9 3.3 2.3-.1.7.4 1.3.9 1.5.4.2.8.2 1.1 0 .2-.1.3-.4.3-.7 0-.4-.2-.8-.5-.9l-.2-.1c-.3-.2-.7-.4-1-.3-1-1.5-2.5-2.3-3.5-2.7.8-.2 2-.4 3-.2.5.1.9.2 1.3.3 0 .3.1.5.3.6h.1c.3.2.6.6 1 .5.2 0 .4-.2.5-.5 0-.2.1-.3.1-.4 0-.6-.4-1.3-.9-1.5-.3-.1-.6-.1-.8.1-.1.1-.2.2-.2.4-2-.9-3.8-.5-4.6-.3.9-.7 2.1-1.6 3.2-2.1 1.4-.5 2.4-.6 3.8-.6.5-.1 1.1-.1 1.7-.1 1.2-.1 1.5-.2 2.2-.5l.3-.1c1.1-.2 2.8.5 4.2 1.7 1.8 1.5 2.9 3.6 2.9 5.5v.1c0 .3-.1.5-.3.7-.5.5-1.6.6-2 .6-.2 0-.3.1-.4.3-.1.2 0 .3.1.5 1 1.1 1.7 2.3 1.7 3.3 0 .3-.1.6-.2.9C10.4 1 8.9 2 6.6 2.6c-2.5.6-4.6.1-5.1-.1-.2-.3-.6-1-1.6-2.6"
           class="st5"
           id="path7877" />
      </g>
      <g
         transform="matrix(0 1.25 1.25 0 601.5 264.318)"
         id="g7879">
        <path
           d="M-.1-.1C0-.5.2-1 .4-1.5c.4-1 .8-1.8 1.3-2.4h.1c.3.1.6.1.8-.1l.2-.2c.3-.2.8-.5.8-1 0-.3-.1-.5-.3-.7-.4-.4-1-.5-1.5-.3-.6.3-1 .9-.9 1.4l.1.2C-.3-3.2-.9-1.8-1.1-.7-1.7-2.4-2-4.5-2-6.6c0-2.1.3-3.9.9-5.2 1.2-2.5 4.6-4.1 6.3-3.8 2.1.4 2.4 2.6 2.4 2.6 0 .1.1.3.3.4.1.1.3 0 .4-.1.4-.3 1.3-.4 2-.1 1 .4 1.6 1.5 1.8 3 .1.7.1 1.3.1 1.9 0 2-.5 4.4-2.7 5-1.1.4-1.7.3-2.4.3-.8 0-1.7 0-3.3.3C2-1.8.7-.9-.1-.1"
           class="st5"
           id="path7881" />
      </g>
      <g
         transform="matrix(0 1.25 1.25 0 711.587 298.724)"
         id="g7883">
        <path
           d="M-.1-.1l.2-.1C.4-.2.6-.6.6-1c0 0 0-.2-.1-.3 1.1-1 1.6-2.6 1.6-3.8 0-.4-.1-.8-.2-1.1-.2-.7-1.2-2.2-4.8-2.1-.1-.4-.6-.4-.8-.4-.1 0-.2 0-.3-.1-.2-.1-.5-.1-.7.1-.1.2-.2.4-.2.7 0 .4.2.8.6.9.5.2 1 0 1.3-.3l.1-.2c.5 0 .8 0 1.8.2.5.2.8.4 1.1.6l.1.1c-1.1.4-2.5 1.1-3.6 2.4-.4-.2-1-.3-1.2.1-.3.5-1.1 1.3-.2 1.8.7.4 1.7-.5 1.7-1.2 1-.8 2.6-1.8 4-1.7v.5c0 1-.4 2.4-.8 3.1-.2-.1-.4-.1-.7 0-.3.1-.7.6-.6 1.1 0 .3.1.5.3.6.3.1.7 0 .9-.1zm-3.1 8.9c-.3.6-1.3 2.2-2.1 2.1-1.4-.1-3.5-2.7-4.2-5.2C-8.7 4.6-7.9 3-8 .8c0-2.1-1.3-5.5-3-7.3 2.2-.5 3.9-2.2 4.7-4.8.4-1.3.7-3.2.7-3.9.5 0 2 .1 3.5.5.6.2 1.4.6 2 1 .6.4 1.1.7 1.6.8 1 .3 1.7.3 2.1.2.1.8.5 3 1.7 4.9.7 1.1 1.6 2.1 2.4 2.9 1.2 1.2 2.2 2.2 2.2 3.2v.3C9.4.3 7.7-.1 7.6-.1c-.1 0-.2 0-.3.1-.1.1-.1.3 0 .3 0 0 .5.6.5 1.3 0 .2 0 .3-.1.4-.1.4-.5.8-1.3 1-1 .3-2.5.3-3.6-.7-.1 0-.2-.1-.3 0-.2 0-.2.1-.2.2.1.3.1.6.1 1 0 1.6-.4 3.3-.9 4.2C1 8.7-.2 10-1.3 9.9c-.6-.1-1.2-.8-1.4-1.1-.1-.1-.2-.2-.3-.1 0 0-.1.1-.2.1"
           class="st5"
           id="path7885" />
      </g>
      <g
         transform="matrix(0 1.25 1.25 0 645.182 314.966)"
         id="g7887">
        <path
           d="M-.1-.1c1.4-.2 4.9-.6 9.7.1 3.4.5 4.7 2.1 5.8 3.7.9 1.3 1.1 3.1.7 4.2-.6 1.3-3.1 1.4-3.1 1.4-.1 0-.3.1-.3.2s0 .3.1.3c0 0 1.6.8 1.6 1.9 0 .3-.2.7-.4 1-.8.9-2.5 1.5-4.1 1.3-1.2-.1-3.3-.6-4.7-3-1.3-1.9-1.4-3.3-1.4-4.5v-.6c0-.7 0-1.4-.4-2.2C2.7 2.4.8.7-.1-.1"
           class="st5"
           id="path7889" />
      </g>
      <g
         transform="matrix(0 1.25 1.25 0 647.011 315.44)"
         id="g7891">
        <path
           d="M-.1-.1c.5.5 1.5 1.6 1.9 2.6.3.6.3 1.3.3 2.2 0 1.1 0 2.5.6 4.3.5 1.6 1.3 2.9 1.9 3.8C3.4 12 1.4 10.5.4 8.4c-.5-1.1-.8-2.6-.8-4.5 0-1.7.2-3.2.3-4"
           class="st5"
           id="path7893" />
      </g>
      <g
         transform="matrix(0 1.25 1.25 0 636.801 327.707)"
         id="g7895">
        <path
           d="M-.1-.1v.2c.1.1.2.2.3.1 1.1-.3 3-.7 3.6-.3.3.1.5.7.5 1.6C4.3 2.6 3.9 4.1 3 5c-1.2 1-2.4.4-4.3.3-.7 0-1.6-.2-2.5-.2-2.9-.1-5 .2-6.2.4C-8 3.6-7.7 2.4-6.8.3c.3-.6.6-1.3 1-2.1C-5-3.7-3.3-4.3-2-4.5c1.9-.3 3.5.3 3.8.6l.1.1C1.9-2.8.6-.9 0-.3l-.1.2"
           class="st5"
           id="path7897" />
      </g>
      <g
         transform="matrix(0 1.25 1.25 0 602.227 226.913)"
         id="g7899">
        <path
           d="M-.1-.1c.2-.1.4-.2.5-.4 1.7.3 3.4-.8 3.9-1.6.1-.2.3-.6.3-1.1 0-1-.5-2-1.5-3.1.1-.2 0-.5-.1-.7l-.2-.2c-.1-.2-.2-.4-.4-.4s-.3 0-.5.2c-.4.3-.4.9 0 1.3.1.2.3.2.5.2l.2-.1c.3.3.4.5.7 1.2.2.4.2.7.2 1v.1c-.8-.5-2-1-3.5-1.1 0-.4-.4-.8-.7-.7-.5.1-1.4 0-1.2.8.3.8 1.3 1 1.8.7 1 .3 2.5.8 3.2 1.7-.6.6-2 1.2-2.7 1.4 0-.2-.2-.4-.5-.5-.4-.2-.8-.1-1 .2-.1.1-.2.2-.2.4 0 .3.3.5.5.6l.1.1c.2.1.4.1.6 0zm-2.8 7.2c-.3-.2-.4-.6-.4-.9 0-.2 0-.4.1-.7 0-.1 0-.3-.1-.4-.1-.1-.3 0-.4.1-.3.3-.7.3-.9.3-.2 0-.3-.1-.4-.1-.3-.4-.5-1.1-.5-1.9C-5.5 2.1-4.9.8-4 0c.1 0 .2-.2.4-.3.1-.1.1-.3.1-.4-.2-.1-.3-.1-.5 0s-.3.2-.5.4C-5.5.3-7 .8-8.6-.7c-1.3-1.2-1.5-2.8-1.5-4V-5c0-.8.4-1 1.4-1.3.2-.1.4-.2.7-.3 0 0 .1-.1.1-.2V-7c-.1-.2-.2-.4-.3-.5-.3-.4-.5-.8-.3-1.4.2-.6 1.8-1.7 3.2-1.9l.2-.1c.8-.1 2.1-.4 3.3 1.4.1.1.3.2.4.1.1-.1.2-.3.1-.4-.3-.5-.4-1.2-.4-1.8 0-.7.2-2.4 1.8-3.3.8-.4 1.4-.6 1.7-.3.4.3.4 1 .4 1.1 0 .1.1.3.2.3.1.1.3 0 .4-.1 0 0 .7-.9 1.4-.9.3 0 .6.1.8.4 1.4 1.6 1.8 2.9 1.7 6v.4c0 2.7.9 5.7 1.7 6.8C6-.1 5 1.5 4.1 3.1c-.2.4-.5.8-.7 1.2C.3 8.8-2.9 7.1-2.9 7.1"
           class="st5"
           id="path7901" />
      </g>
      <g
         transform="matrix(0 1.25 1.25 0 579.911 204.706)"
         id="g7903">
        <path
           d="M-.1-.1c.1.3.5.9 1.2.9.3 0 .6-.1 1-.3.7-.2 1.3-.5 1.8 0 .2.2.3.4.3.7 0 .2-.1.5-.2.8-.1.2-.1.5-.2.8 0 .6.1 1.8.2 2.4-.5-.4-1.6-1.1-2.7-1.3-1.2-.3-2.7.6-3.1.9-.1-.2-.2-.7-.2-1.3 0-.6.1-1.2.4-1.8C-1.2.7-.4.1-.1-.1"
           class="st6"
           id="path7905" />
      </g>
      <g
         transform="matrix(0 1.25 1.25 0 586.587 205.102)"
         id="g7907">
        <path
           d="M-.1-.1c0-.1.1-.2.2-.3.7-.2 2.8.8 3.5 1.6.7.9 1.3 2.4 1.3 3.4v.3c-.1.4-.4.6-.6.6-.5.1-1.3-.2-1.7-.8-.1-.3-.2-.6-.3-1.1-.1-.7-.3-1.5-.9-2.3C1.3 1.1.9.8.6.6.3.4 0 .2-.1-.1"
           class="st6"
           id="path7909" />
      </g>
      <g
         transform="matrix(0 1.25 1.25 0 578.646 205.972)"
         id="g7911">
        <path
           d="M-.1-.1v-.2C.3-1.8 2-2.8 5-3.3c4.9-.7 6.7 4.6 7.4 6.9.1.3.2.5.2.7-4 .1-6.4 3.5-7 4.3-.3-.6-1.7-2.9-1.7-4.5v-.3c0-.3.1-.6.2-1 .1-.7.3-1.4.3-2 0-.4-.2-.7-.5-.9-.5-.3-1.2-.3-1.9 0C1 .3.3.3 0 .1l-.1-.2"
           class="st6"
           id="path7913" />
      </g>
      <g
         transform="matrix(0 1.25 1.25 0 688.419 264.962)"
         id="g7915">
        <path
           d="M-.1-.1C-1 1.4-1.5 3.1-1.9 4.4c-.2-.6-.6-1.4-.9-2.4-.4-1-.5-2-.5-2.9.2 0 .4 0 .5-.2.3-.2.4-.6.4-.9 0-.4-.2-.8-.4-.9-.1 0-.2-.1-.3-.2-.4-.2-.9-.6-1.3-.4-.2 0-.4.2-.5.5-.1.1-.1.2-.1.4 0 .5.3 1 .7 1.4 0 .4-.1.8-.1 1.2 0 .7.1 1.3.2 1.8.2.8.4 1.5.5 2-1.2-1.5-2.8-3.2-3.7-4-.9-.7-2.9-2.8-2.9-6.3 0-.4 0-.7.1-1.1.2-1.7 1.1-3.2 2.4-4.2.8-.6 1.8-.9 2.4-.8.6.1 1.2 1.3 1.4 1.9.1.2.2.3.4.3.1 0 .3 0 .4-.2 0 0 1.4-2 2.7-1.4 1.9.8 3.1 4 3.2 5.1v.5c0 1.8-.8 3.1-1.8 4.7-.3.5-.6 1-1 1.6"
           class="st6"
           id="path7917" />
      </g>
      <g
         transform="matrix(0 1.25 1.25 0 694.705 260.02)"
         id="g7919">
        <path
           d="M-.1-.1C-1.2-.7-2.8-1.3-5-1.5v-.1c0-.2-.3-.5-.6-.7-.3-.2-.7-.2-1 0h-.1c-.6.3-1.3.7-1.2 1.5.1.3.3.6.5.8.3.2.7.2 1.1 0 .3-.2.6-.4.9-.7.8.1 2.1.4 3.4 1 .3.1.5.2.8.3.6.2 1.1.4 1.6.7-1.1-.1-2.9-.1-4.6.3h-.1c-.3-.3-.5-.5-.8-.6-.2 0-.5 0-.6.2l-.3.3c-.3.4-.6.6-.3 1.2.3.7.7.9 1.3.7.7-.2 1-.5 1-.9v-.2c1-.2 2.7-.2 3.7-.1-1.3.6-3.1 1.5-4.9 2.8-2.4 1.8-3.7 3.4-4.1 3.9-1.4 0-9.3-.6-9.8-4.8-.2-1.6 1.8-2.4 1.8-2.4.2-.1.3-.3.3-.5s-.2-.3-.4-.4c-.1 0-2-.2-2-1.7 0-.7.7-2.1 2.2-3.5 2.1-2 4.8-3.1 7.4-3 3.9.1 7.7 4.5 9.7 7.3"
           class="st6"
           id="path7921" />
      </g>
      <g
         transform="matrix(0 1.25 1.25 0 722.107 253.93)"
         id="g7923">
        <path
           d="M-.1-.1c-.6-.2-.7-1.1-.7-1.7 0-.5.1-.9.1-.9 0-.2-.1-.4-.2-.5-.2 0-.4 0-.5.2 0 0-1.3 1.3-2.2.8-.5-.3-1.3-1.8-1.3-4.2 0-1.7.5-4.4 2.9-7 3.1-3.4 6.2-5 7.9-5.7 0 .2 0 .4-.1.6-.4 1.9-1.7 3.4-2.5 4.3h-.1c-.4-.1-.6 0-.8.2-.3.2-.3.6-.3.9v.5c0 .3.1.5.4.7.3.2.8.3 1.2.2.4-.2.6-.6.6-1 0-.3-.1-.6-.2-.8.5-.5 1.1-1.1 1.8-2 .7-1 1.1-1.9 1.4-2.8.6 1.7 1.5 4.9 1.5 8.4 0 1-.1 1.9-.2 2.8-.5 2.3-1.9 4.5-4 5.8C2.8-.1.9.2-.1-.1"
           class="st6"
           id="path7925" />
      </g>
      <g
         transform="matrix(0 1.25 1.25 0 715.479 265.964)"
         id="g7927">
        <path
           d="M-.1-.1C.1-.5.4-1.8.4-4c0-.6 0-1.1-.1-1.7-.2-3.5-1-6.3-1.6-7.9.5.3.9.6 1.3 1 .7.7 1.1 1.5 1.4 2.2-.3.2-.4.6-.4 1 0 .5.2.9.5 1.2.2.2.5.3.8.3.4-.1 1-.6 1-1.2 0-.2-.1-.3-.1-.4l-.1-.2c-.1-.3-.3-.6-.6-.7-.1-.6-.4-1.2-.9-2-.6-.9-1.2-1.5-1.8-2 2.6.1 7.2.8 11.2 5 1.9 1.9 2.4 3.5 2.9 4.8.6 1.8.5 3.2-.5 3.7-.9.6-1.9.6-1.9.6-.2 0-.3.1-.4.2-.1.1-.1.4 0 .5.2.3.7 1.1.7 1.7 0 .2 0 .3-.1.4-1 1.3-5.2 1.5-8.4.2C1.3 2 .2.4-.1-.1"
           class="st6"
           id="path7929" />
      </g>
      <g
         transform="matrix(0 1.25 1.25 0 696.572 265.464)"
         id="g7931">
        <path
           d="M-.1-.1C.3-.2.7-.4 1-.5l.4-.1c.8-.3 1.9-.6 2.9-.7.1.2.1.2.3.3.3.2.6.5 1 .4.2 0 .3-.1.4-.3.2-.2.5-.7.5-1.1 0-.4-.2-.7-.6-.8-.1 0-.2-.1-.3-.1-.5 0-.9-.1-1.2.5-.1.1-.2.2-.2.4-1.9-.1-3.6.4-4.8.9.4-.5 1-1.1 1.7-1.7.8-.8 1.6-1.2 2.2-1.6.3.1.7.1 1 0 .3-.1.6-.4.7-.6v-.2c.1-.2.3-.5.3-.8 0-.2-.1-.7-.8-.7-.5 0-.8.2-1.2.5-.3.3-.4.6-.5.9-1.8.6-3.2 1.8-4 2.7 1-2.5 2.7-5.9 5.8-7.9 3.9-2.5 7.3-1.8 8.6-1.4 1.3.4 2.1 1.1 2.3 1.5.1.1.1.3.1.5 0 .8-.6 1.7-.8 1.9 0 .1-.1.2-.1.2v.3c.1.2.2.3.4.3 0 0 2.1.2 2.6 1.5 0 .1.1.4.1.9 0 1.8-1.2 7-6.6 8.5C9.5 2.6 7 1.1 4.8.5 3 .1 1.3-.1-.1-.1"
           class="st6"
           id="path7933" />
      </g>
      <g
         transform="matrix(0 1.25 1.25 0 560.257 259.636)"
         id="g7935">
        <path
           d="M-.1-.1c0 .5.2 1.4 1.2 2.5 1.1 1.3 3 2.2 4 2.7-1 .5-3.1 1.5-5.4 3.6-1.7 1.6-2.5 2.8-2.9 3.4-.1.2-.3.4-.3.5 0 0-.5 0-1-.3-.3-.2-.8-.6-.9-1.3 0-.1-.1-.2-.1-.2 0-1.2 1.4-2 1.4-2 0-.1.1-.2.1-.3-.1-.2-.2-.2-.3-.2 0 0-2.1-.1-2.1-1.4C-6.4 1.5-1.5.1-.1-.2v.1"
           class="st6"
           id="path7937" />
      </g>
      <g
         transform="matrix(0 1.25 1.25 0 558.389 275.922)"
         id="g7939">
        <path
           d="M-.1-.1s2 1.1 2.4 2.8C2.3 3.3.4 5.1-1.4 6c-2.3 1.2-4.9.3-6.9-.7-1.9-.9-3.4-2.2-3.9-3.4-.1-.3-.4-1.2-.4-2 0-.6.2-1 .5-1.2.6-.2 1.1 0 1.8.4.6.3 1.4.7 2.5.8.6.1 1.5-.1 2.3-.4.6-.2 1.2-.4 1.7-.4 2.2-.1 3.7.8 3.7.8"
           class="st6"
           id="path7941" />
      </g>
      <g
         transform="matrix(0 1.25 1.25 0 578.962 273.52)"
         id="g7943">
        <path
           d="M-.1-.1C-3-1.3-6.2-1-8.4.8c-.6.5-1.5 1.3-1.8 1.5-.4-.1-2-.3-2.7-1.3-.4-.6-.6-1.2-.6-1.9 0-1.8 1.4-3.9 4.1-6.1 1.2-1 2.3-1.5 3.2-1.9-.5.6-1.3 1.6-1.7 3 0 .5-.1.9-.1 1.3-.3.1-.5.4-.6.6v.1c-.1.2-.2.5-.2.8 0 .3.1.6.4.8.2.2.5.3.7.1.4-.1.6-.4.7-.7.1-.4.2-.7.2-.9 0-.4-.2-.6-.3-.7l-.1-.1c.1-.6.4-1.4 1.1-2.5.3-.4.5-.7.7-.9.1.4.7 2.4 2 3.8v.1c0 .4.2.7.5.9h.1c.4.2 1 .5 1.5.1.1-.2.2-.4.2-.5 0-.2-.1-.5-.5-.8-.4-.2-.8-.3-1.1-.3-.2-.3-.3-.6-.6-1.1-.3-.8-.6-1.6-.7-2.1.7.4 1.7.9 3.2 1.2 0 .2.1.3.2.5.5.4.8.5 1.2.2.2-.1.6-.4.6-.8 0-.1 0-.2-.1-.2-.2-.3-.8-.8-1.2-.7-.2 0-.3.1-.4.3l-.1.1c-.9-.3-2-.9-2.7-1.6 1.3 0 2.7-.1 4-.6 2.2-.9 3.5-2.7 3.9-3.3.5.3 1.9 1.1 2.7 2.3 1.2 2 1.3 3.6 1.3 4.2 0 .4 0 .7-.1.9C8-3.8 6.1-3.6 6.1-3.6c-.1 0-.2.1-.2.2v.3s.6 1 .6 2.1c0 .3 0 .5-.1.7-.3.7-.9 1.2-1.8 1.5-1.2.4-2.1 0-3.3-.7C.8.4.4.2-.1-.1"
           class="st6"
           id="path7945" />
      </g>
      <g
         transform="matrix(0 1.25 1.25 0 615.56 309.908)"
         id="g7947">
        <path
           d="M-.1-.1c-.1.4-.2.9-.4 1.3-.3.8-.6 1.3-.9 1.6-.2 0-.5.1-.9.3-.4.3-.5.6-.5.8 0 .2.1.4.3.6.5.5 1.1.1 1.4-.1h.1c.3-.2.5-.5.5-.8 0-.2-.1-.3-.1-.4 0-.2.1-.3.2-.4C.2 2 .7 1 1 .3c.5 1 1.1 3 1.1 5.4v.5c-.1 2-1.2 4-1.8 4.5-1-.5-2.2-1-4.1-1.3-1.7-.3-3 .1-3.8.4 0-1.4.6-3.7 1.9-5.5C-3.9 1.8-1.4.5-.1-.1"
           class="st6"
           id="path7949" />
      </g>
      <g
         transform="matrix(0 1.25 1.25 0 608.926 312.877)"
         id="g7951">
        <path
           d="M-.1-.1C-.6.8-1 1.8-1.3 2.6c-.2-.8-.6-1.9-1.4-2.9.1-.2.1-.3.1-.5v-.4c0-.2-.1-.3-.2-.4-.4-.3-1.1-.1-1.5 0-.1 0-.3.1-.3.5 0 .3.1.5.2.7.2.5.5.6 1 .5.4.4.6.9.8 1.4.3.9.4 1.6.4 1.9-.7-.3-2.1-.9-4.1-.9 0-.2-.1-.3-.2-.4-.3-.2-.7-.1-1-.1h-.2c-.6.1-.8 1-.6 1.3.2.3.6.4 1.1.3.3-.1.6-.3.7-.5 1.1.1 2.6.3 3.8 1.2-1.2.5-3.3 1.5-5 3.1-1.5 1.6-3.3 3-6.2 1.7-2.5-1.1-3.2-3.5-3.2-4.7 0-.2 0-.4.1-.6.2-.8 1.9-1.4 2.6-1.5.1 0 .2-.1.2-.3 0-.1-.1-.3-.2-.3-.5-.1-1.6-.6-1.6-1.4 0-.4.5-1 1.2-1.6.9-.7 2.4-1.5 3.7-1.3l1.5.3c1.4.3 2.7.6 4.6-.4 1.8-1 2.5-3.5 2.5-4.6v-.2c.5 0 1.1.3 1.6.7C.1-5.9.7-4.5.7-3c0 1-.3 2-.8 2.9"
           class="st6"
           id="path7953" />
      </g>
      <g
         transform="matrix(0 1.25 1.25 0 614.274 317.424)"
         id="g7955">
        <path
           d="M-.1-.1l-.3-.2c-1.1-.6-2.4-.8-3.4-.7.6-.6 1.2-1.1 1.7-1.5.3.2.7.2 1 .2.5-.1.8-.4.9-.8 0-.3-.2-.6-.4-.7-.3-.2-.6-.3-.8-.2l-.2.1c-.4.1-.9.3-.9.8v.2c-.7.4-1.3.9-1.8 1.3.3-.9.9-2 1.4-3.1C-1.5-7.2.4-8.3 3-8.2c3.4.1 4.8 2.2 5 2.9.2 1.3-1.4 2.6-1.4 2.6l-.2.1v.2c0 .1.1.2.2.2.5.1 1.8.6 1.9 1.4 0 .3-.3 1-.9 1.6-.5.5-1.5 1.1-3.2.9-2-.2-3.3-1-4.5-1.8"
           class="st6"
           id="path7957" />
      </g>
      <g
         transform="matrix(0 1.25 1.25 0 628.712 312.82)"
         id="g7959">
        <path
           d="M-.1-.1c.4-1.4.7-3.2.7-5v-1.2c-.1-1.8-.6-3.4-1-4.4.2.1.4.3.6.5.5.4.8.8 1 1.1v.3c0 .2 0 .3.1.5.1.3.2.5.4.6.2.1.4.1.6 0 .2-.1.4-.3.4-.7 0-.2 0-.3-.1-.5V-9c0-.2-.2-.5-.4-.6-.2-.1-.4-.1-.5 0-.2-.1-.2-.2-.3-.3-.5-.8-1.1-1.4-1.6-1.7 1.7.1 2.7.6 3.7 1.2.8.4 1.7.9 3.2 1.6 2 .9 2.5 2.9 2.5 4.5 0 .6-.1 1-.2 1.3-.4.7-2.1.8-2.7.7-.1 0-.2 0-.3.2 0 .1 0 .2.1.3.3.4 1.1 1.5 1.1 2.2 0 .1 0 .2-.1.3-.1.2-1.1.8-2.5 1-1.1.1-2.9-.1-4.7-1.8"
           class="st6"
           id="path7961" />
      </g>
      <g
         transform="matrix(0 1.25 1.25 0 692.655 306.717)"
         id="g7963">
        <path
           d="M-.1-.1v-.7c.4-3.6 3.4-6.7 5.6-6.9 2.3-.2 5.1 2.6 6 6.1.1.4.2.9.2 1.3C11.8 2.9 9.2 7 7.6 7c-.8 0-1.4-.8-1.4-.8-.1-.1-.2-.1-.3-.1-.1 0-.2.1-.2.2s-.1 1.5-1.5 1.4c-1.3 0-4.3-4-4.3-7.8"
           class="st6"
           id="path7965" />
      </g>
      <g
         transform="matrix(0 1.25 1.25 0 679.129 315.418)"
         id="g7967">
        <path
           d="M-.1-.1c0-.8-.2-2.5-.8-3.4v-.1c.1-.2.1-.4.1-.6 0-.3-.1-.4-.2-.6-.1 0-.2-.1-.4-.1h-.2c-.3 0-.6.1-.7.5-.1.5 0 .8.4.9.1 0 .2 0 .3.1.5.9.6 2.6.4 3.7-.3-1-.9-2.4-2.1-3.3v-.1c0-.2 0-.3-.1-.4v-.1c-.2-.3-.4-.9-1-.8-.5.1-.7.6-.5 1.1.3.6.7.9 1 .9l.3-.1C-2.4-1.4-2.1.7-2 1.7c-.7-1.1-2.1-2.9-4.8-5-2-1.5-2.4-2.6-2.4-3.3 0-.2 0-.3.1-.4.7.1 3.1.3 5.3-1.5.2-.1.4-.3.5-.5 1.1-1 1.8-1.6 3-.6C.9-8.5 1-7.2 1-6.6v.2c0 .1.1.3.2.3s.3 0 .3-.1c2.1-3 5.7-2.9 6.7-2.6.6 0 .8.3.8.8 0 .3-.1.5-.1.5v.1l.1.2c.1.1.2.1.3.1 0 0 .8-.3 1.3.2.1.1.2.3.2.6 0 1.3-1 3.5-1.5 4.3-.5-.5-1.6-1.2-3.5-1-2.6.2-4.6 1.6-5.9 2.9"
           class="st6"
           id="path7969" />
      </g>
      <g
         transform="matrix(0 1.25 1.25 0 690.282 298.977)"
         id="g7971">
        <path
           d="M-.1-.1c-1.8-.9-3-1-3.8-1.2-.8-.1-1-.2-1.2-.5-.1-.2-.2-.4-.2-.6C-5.3-3.5-4-4.5-4-4.5c.1-.1.1-.2.1-.3 0-.2-.2-.3-.3-.2 0 0-1.8.3-2.3-.7 0-.1-.1-.3-.1-.4 0-1 1.1-2.9 3.1-4.3 2.4-1.7 3.4-2.1 4.8-2.2 2.3-.1 5.9 2.5 7.7 4.4l.1.2 1.3 1.3c-.8-.6-2.5-1.3-4.6-1l-.2-.1-.2-.1c-.3-.2-.7-.4-1.1-.3-.1.1-.3.2-.3.4v.2c0 .6.4 1.1.9 1.3.4.2.7.2.9 0 .2-.2.2-.5.2-.7 1 0 2 .1 2.5.4.7.4 1 .7 1.2.9C5.9-4.1 5.5-.1 5.4.8c-.6.2-2.9.4-5.5-.9"
           class="st6"
           id="path7973" />
      </g>
      <g
         transform="matrix(0 1.25 1.25 0 687.856 321.777)"
         id="g7975">
        <path
           d="M-.1-.1C-.5-.8-1-1.8-2.5-2.9c-.9-.7-2-1.5-3.5-1.5C-4.9-5.9-2.1-9.2 1.5-9c2.9.2 3.6 2.9 3.9 4.5v.6c0 .9-.2 2.3-.8 3.3C4.1.6 3.3 1.2 2.2 1.2.6 1.2.4.8-.1-.1"
           class="st6"
           id="path7977" />
      </g>
      <g
         transform="matrix(0 1.25 1.25 0 591.707 189.076)"
         id="g7979">
        <path
           d="M-.1-.1c0-.6.1-1.1.2-1.6C.8-5 3-6 3-6c.1-.1.2-.2.1-.3 0-.2-.2-.3-.3-.3 0 0-2.6.9-5.3-.4-2.4-1.1-3.9-4-3.9-5.5 0-.3 0-.5.1-.6.6-.9 2.2-1.1 2.2-1.1.1 0 .2-.1.2-.2v-.3s-1.3-1.6-1.3-2.9c0-.2.1-.5.2-.7.6-1.1 4.5-3.8 7.9-3.1 3.6.8 4.7 3.7 4.9 4.3 0 .1.2.2.3.2.1 0 .2-.1.3-.3v-.1c0-.2-.1-.7-.5-1.8-.2-.4-.2-1-.2-1.6 0-1.1.3-2.2.6-3 .7-1.3 1.9-2.8 3-2.8.3 0 .9.7 1.4 1.3l.2.1c.1 0 .2 0 .2-.1 0 0 .9-1.5 2.2-1.2 1.6.3 2.7 3 2.8 4.7.2 2-.6 4.3-.8 5-1 0-5.2.6-7.8 4.6-.4-.7-1.3-2-3.3-2.4l-.1-.3c-.1-.1-.6-.7-1.1-.7-.2 0-.4.1-.6.3l-.1.2c-.1.2-.3.4-.3.6 0 .2.1.3.2.5.2.4.6.7 1.3.4.1-.1.3-.2.5-.3 1 .4 2.2 1.2 2.8 2.7-.9-.3-2.8-.9-4.3-.3-.1-.2-.3-.3-.5-.3h-.1c-.5-.2-1.3-.4-1.7.3-.1.2-.1.4-.1.5 0 .5.3.8.9 1 .9.3 1.6.2 1.8-.3.1-.1.1-.3.1-.4v-.1c1.8-.2 3 .6 3.7 1.2-.5 1.1-.8 2.3-.8 3.6 0 2.1.5 3.8.8 4.6-1 0-3.5.4-5 2.4-1.2 1.4-1.3 3.6-1.2 4.7C1.5 4.9-.1 2.7-.1-.1"
           class="st3"
           id="path7981" />
      </g>
      <g
         transform="matrix(0 1.25 1.25 0 609.216 198.542)"
         id="g7983">
        <path
           d="M-.1-.1C1 1.7 1.5 4.5 1.7 6.4 1 5.4-.4 3.8-2.6 3.3c0-.3-.2-.7-.5-.9-.4-.3-.8-.4-1.2-.3h-.1c-.6.2-1.5.4-1.5 1.4 0 .4.1.7.4 1 .3.2.7.3 1.2.2.6-.3 1-.5 1.3-.7 1.3.4 2.9 1.2 3.9 3.5-.7-.3-2-.7-3.7-.6 0-.4-.3-.8-.7-.8-.1-.1-.3-.1-.4-.2-.5-.1-1-.3-1.5.4-.1.4-.3.7-.3.9 0 .4.2.7.4.8.3.4.8.7 1.2.7.2 0 .4-.1.5-.3.2-.2.4-.4.5-.7 2.3.4 3.5 1.2 4 1.6-2.1 1.7-7.1 5-11.6 1.7s-6.1-6-6.1-7.4c0-.3.1-.6.3-.8.5-.6 1.9-1 2.3-1.1.2 0 .3-.2.3-.3 0-.2 0-.3-.1-.4-.3-.2-1.2-1.1-1.2-1.7 0-.4.4-.8.7-1.1 1.8-1.4 6.3-2.5 9.5-1.9C-2.2-3-.5-.8-.1-.1"
           class="st3"
           id="path7985" />
      </g>
      <g
         transform="matrix(0 1.25 1.25 0 625.806 192.53)"
         id="g7987">
        <path
           d="M-.1-.1c2.6-.3 4.7-1.6 6-2.7-.3 1.2-1 2.9-2.4 4-.1 0-.2-.1-.3-.2C3 .9 2.8.8 2.5.9c-.1.1-.2.1-.3.1-.4.2-.9.3-.9 1 0 .5.1 1.1 1 1.3h.1c.4.1.8.2 1.1-.1.1 0 .2-.2.2-.5v-.3-.3c1.4-.9 2.8-2.6 3.4-4.5.4 1 .7 2.5.7 4.3 0 1.4-.2 2.9-.6 4.4-1.7 6.3-9.9 7.7-11.1 7.5-1.2-.2-1.5-2.3-1.5-2.3 0-.2-.1-.3-.3-.4-.1-.1-.3 0-.4 0-.3.3-1.5.9-2.1.6-.3-.2-1-.7-1-3.1 0-.7.1-1.6.2-2.6.7-4.6 3.7-6 4.4-6.3.5.2 1.7.5 4.5.2"
           class="st3"
           id="path7989" />
      </g>
      <g
         transform="matrix(0 1.25 1.25 0 622.516 211.252)"
         id="g7991">
        <path
           d="M-.1-.1C-1.8-1.3-4-2-5.6-2.4c1.4-.8 3.1-1.1 5-1.2.1.4.4.6.6.8.3.2.6.2.8 0l.2-.1c.5-.2 1-.5 1-1.1 0-.2 0-.4-.2-.6-.3-.5-.9-.7-1.5-.5-.4.1-.7.3-.8.6-2.2-.2-4 .3-5.2.7 1.5-1.7 4.2-3.8 8-4.2 3.7-.4 6 1.2 7.1 2.2 1.2 1.1 1.7 2.2 1.7 2.8-.1 1-1.2 1.3-1.2 1.3-.1.1-.3.2-.3.4v.1c0 .1 0 .2.1.2.4.4 1.5 1.7 1.5 2.7v.2c-.1.4-.7 1.2-1.8 1.8-.8.5-2.8 1.4-5 .7-.6-1-2.2-2.8-4.5-4.5"
           class="st3"
           id="path7993" />
      </g>
      <g
         transform="matrix(0 1.25 1.25 0 616.072 204.042)"
         id="g7995">
        <path
           d="M-.1-.1c.2-.7.3-1.5.3-2.4 0-.5 0-.9-.1-1.4.5-.2.9-.6.9-1.1 0-.1 0-.2-.1-.3l-.1-.3c-.1-.4-.3-.8-.8-1-.3-.1-.5 0-.9.2s-.6.7-.6 1.2.2.9.5 1.2c.1 0 .2.1.3.1v.1C-.7-2.6-.9-.6-1.9.6c-.1-1.3-.3-3-.8-4.7-.6-2.2-1.4-3.2-2.1-4.1-.2-.4-.4-.6-.5-.9-.1-.2-.3-1.1-.3-2.2 0-.6.1-1 .2-1.4.5-1.7 1.3-3.4 3.6-4.3 1.2-.4 2.3 1.2 2.3 1.2.1.1.3.2.4.2.2 0 .3-.2.3-.3 0-.1.2-1 1-1 1.3.1 4 3 4.5 5.8.2.8.3 1.7.3 2.5 0 3.1-1.2 4.8-1.5 5.2-.5.2-2.4 1-4.4 2.4l-1.2.9"
           class="st3"
           id="path7997" />
      </g>
      <g
         transform="matrix(0 1.25 1.25 0 641.326 208.034)"
         id="g7999">
        <path
           d="M-.1-.1C-.1.2-.2 1-.7 1.4c-.2.2-.4.2-.7.2-1.4-.2-3.9-1-4.2-3.9.3-.4 1.2-1.6 1.8-4 .2-.9.4-2 .4-3.3 0-1.7-.2-3.8-.9-5.6.5.2 2 .8 3.1 3-.1.1-.2.2-.3.4-.1.1-.1.3-.1.4 0 .6.5 1.2 1 1.5.4.2.7.3 1.1.1.3-.2.4-.6.4-1s-.1-.7-.4-.9l-.2-.1c-.1-.1-.3-.2-.4-.2-.5-1.6-1.9-3.6-3.7-4.5 2.4.6 6.3 1.9 8.7 5.4 1.3 1.8 1.9 3.8 1.9 5.8C6.8-2.7 5.6-.5 3.6.8 2.2 1.7.7-.2.7-.3.6-.5.4-.5.2-.5c-.2.1-.3.3-.3.4"
           class="st3"
           id="path8001" />
      </g>
      <g
         transform="matrix(0 1.25 1.25 0 650.27 192.177)"
         id="g8003">
        <path
           d="M-.1-.1l.1.2c.1.1.1.1.2.1s2.6 0 2.9 3.3v.2c0 .6-.1.5-.9.5-.9 0-2.1 0-4.3 1.5C-3.9 7-4.8 8.3-5.4 9.2c-.8-4-.1-7.2 1.1-9.3C-4-.8-3-1.8-1.2-1.7c.8.1 1.2.5 1.2 1.2 0 .2-.1.4-.1.4"
           class="st3"
           id="path8005" />
      </g>
      <g
         transform="matrix(0 1.25 1.25 0 664.52 186.06)"
         id="g8007">
        <path
           d="M-.1-.1c0-.2 0-.4.1-.6.3-1.5 1.5-3 3.2-4.1 1.5-1 3.1-1.3 4.3-1 2.7.7 2.9 3.3 2.9 3.8v.2C10.2-.4 8-.4 8-.4c-.1 0-.3.1-.3.2s0 .3.1.3c0 0 .9.7 1.2 1.3.1.3.2.5.2.7 0 1.1-1.2 2.1-3.3 2.6-2.2.6-3.2-.2-4.2-1.1C.2 2.1-.1.8-.1-.1"
           class="st3"
           id="path8009" />
      </g>
      <g
         transform="matrix(0 1.25 1.25 0 672.967 171.952)"
         id="g8011">
        <path
           d="M-.1-.1c0-2.3 1.2-4.6 3-5.9 4-2.8 6.6-1.3 6.6-1.3 1.8.8 1.2 4.5 1.2 4.5-.4 4.2-2.6 6.7-4 7-1.3.3-1.8-.9-1.8-1 0-.1-.1-.2-.2-.2s-.2 0-.3.1c0 0-1.1 1.5-2.6 1C1 3.9.1 2-.1.4v-.5"
           class="st3"
           id="path8013" />
      </g>
      <g
         transform="matrix(0 1.25 1.25 0 657.19 181.156)"
         id="g8015">
        <path
           d="M-.1-.1c.2-.1.4-.4.4-.8C.3-1.4-.1-2-.7-2c-.2 0-.4.1-.6.2-.2.2-.2.4-.2.6v.5c0 .3.1.4.3.6.2 0 .4.1.5.1.3 1.2.8 2.1 1.4 2.9-.8-.3-1.6-.7-2.3-1.1C-4.8-.1-5.2-2-5.2-2s-.2-.5-.2-1.2c0-.8.3-1.9 1.4-2.9C-2.2-7.6 0-7.8.9-7.4c1.5.4 1.8 1.7 1.8 2.7 0 .4 0 .8-.1 1.2C2.3-2.3 2.2-1 2.2.2c0 1.3.2 2.4.3 3.1C.8 1.9.2.7-.1-.1"
           class="st3"
           id="path8017" />
      </g>
      <g
         transform="matrix(0 1.25 1.25 0 670.342 167.012)"
         id="g8019">
        <path
           d="M-.1-.1c-.3-.3-.4-.7-.4-1.1 0-.9.6-1.6.6-1.6.1-.1.1-.2 0-.3 0-.1-.1-.1-.3-.1 0 0-.4.1-.7-.2-.4-.4-.5-1.2-.2-2.3.1-.7.6-2.6 3.4-4.5 1.2-.8 2.5-1.1 3-1.1.3.3 1.7 2 3.4 3.1.8.5 1.5.8 2.4 1.1-1.1.2-2.3.2-3.2.1 0-.3-.3-.5-.6-.7-.4-.1-.9 0-1.1.3-.1.1-.2.3-.2.5 0 .4.4.6.6.8l.1.1h.7c.2-.1.4-.2.5-.4.8.1 1.3.2 2 .3-1 .2-1.7.6-2.6 1.1C4.7-3.4 3.7-1.3 3.5-.8c-.2.5-.4 1.5-.4 2.3C2.4 1.4.9 1.1-.1-.1"
           class="st3"
           id="path8021" />
      </g>
      <g
         transform="matrix(0 1.25 1.25 0 611.869 235.22)"
         id="g8023">
        <path
           d="M-.1-.1c0 1.8.3 3.7.8 4.8.4 1 .2 3-1 3.2-1 .2-1.9-1.2-1.9-1.2-.1-.1-.3-.2-.4-.1-.1.1-.1.3-.1.4v.3c0 .3-.1.5-.2.7 0 0-.4.6-1.1.1-1.3-.9-1.5-2.3-1.5-3.3 0-1.4.5-2.7 1-3.4C-3-.8-.9-1.9.1-2.3 0-1.6-.1-.9-.1-.1"
           class="st3"
           id="path8025" />
      </g>
      <g
         transform="matrix(0 1.25 1.25 0 606.527 172.227)"
         id="g8027">
        <path
           d="M-.1-.1c.2-.2.3-.4.3-.7C2-1.4 2.7-3.3 2.8-4.4v-.1c0-.8-.3-2.8-3-3.7 0-.4-.4-.5-.5-.6l-.2-.1c-.2-.2-.4-.3-.6-.2-.3 0-.4.2-.5.5-.2.5 0 .9.4 1.2.4.2.8.3 1 .1l.2-.2c.4.2.7.2 1.1.5.3.4.5.7.6 1-1.1 0-2.2.3-3.5 1.1-.3-.3-.8-.6-1.1-.4-.4.3-1.4.8-.8 1.5.5.6 1.7.2 2-.4 1.1-.3 2.5-.6 3.7 0C1.7-2.9.7-1.7.1-1.3c-.1-.1-.4-.2-.7-.2-.4 0-.9.2-1 .7v.1c0 .7.6.7.9.7h.1c.2.1.4 0 .5-.1zm-.3 11.2c-2-.5-3-1.8-3.5-4.2 0-.3-.1-.6-.1-.8 0-2.3 1.3-4.5 1.3-4.6.1-.1 0-.3-.1-.4-.1-.1-.3 0-.4.1 0 0-1.3 1.9-4 2.4-2.7.4-5.5-1.5-5.8-2.2l-.1-.2c0-.7.6-1.5.8-1.8.1-.1.1-.2 0-.3 0-.1-.1-.2-.2-.2-.3 0-1.3-.2-1.6-.7v-.3c0-1.2 1.3-4.7 3.4-5.7 2.3-1.2 4.9-.3 6 .2.3.1.6.3.6.3.1.1.3 0 .4-.1.1-.2 0-.3-.1-.4l-.6-.3c-.9-.5-2.4-1.5-2.8-3.3-.1-.3-.1-.7-.1-1.2 0-1.4.3-2.7.7-3.1.6-.5 1.9.1 1.9.1.1.1.2.1.3 0 .1 0 .1-.2.1-.3 0 0-.1-1 .5-1.4.6-.3 3.2-.6 5.1 1.4.7.8 1.1 1.7 1.1 2.9 0 .9-.2 1.8-.5 2.3-.1.2-.2.3-.2.5-.1.1 0 .3.1.4.2 0 .4 0 .5-.2 0 0 .1-.2.2-.5.9-2.1 1.9-3.3 3.1-3.9 2.1-1 3.8-.7 4.5-.4-.3.6-1 2.2-1 4 0 .7.1 1.3.2 1.9.7 2.4 1.7 3.8 2.3 4.4-.9.1-2.4.2-3.5.6-2.8.9-5 2.4-5.4 3.7-.1.3-.1.6-.1.9 0 .9.4 1.6.7 2-.6.2-1.7.6-2 1.8-.1.3-.2.7-.2 1 0 2.3 2 4.4 2.8 5.2-.7.2-2.4.9-4.3.4"
           class="st3"
           id="path8029" />
      </g>
      <g
         transform="matrix(0 1.25 1.25 0 733.207 215.812)"
         id="g8031">
        <path
           d="M-.1-.1l.2-.2c.2-.2.5-.5.3-.8C2.5-2.7 3-4 3-5c0-.3 0-.5-.1-.7C2.5-6.8.7-8.4-1.3-8.6c-.1-.2-.3-.4-.4-.5-.2-.2-.4-.2-.6-.1l-.2.1c-.3.1-.8.3-.8.8 0 .1 0 .3.1.4.3.5.8.5 1.3.4.2-.1.5-.3.6-.5.8.4 2.3 1.4 2.8 2.3-1.1 1-2.9 1.2-4.1 1.2-.6-.5-1.8-.5-2.2.2-.4.9.8 1.1 1.3 1.3.4.2.8-.3 1-.7 1.7.2 3.2 0 4.3-.4v.1c-.2.3-.3.6-.6 1.1-.6.8-.8 1-1.2 1.2l-.2-.1c-.2-.1-.6 0-.8.3-.5.4-.6 1-.2 1.4.2.3.4.4.6.4.2 0 .4-.2.5-.4zm.5 5.5C-.1 6.6-.4 7-.9 7c-.4 0-1.7-.2-2.7-2.2-.6-1.1-.6-2.5-.2-4 .4-.7.5-1.2.5-1.2 0-.2 0-.3-.2-.4-.1-.1-.3 0-.4.1 0 0-.3.5-.5 1.2-.5.9-1.4 1.8-3 1.8C-9 2.2-13 .5-13.2-1c-.2-1.2 1-2 1-2.1.1-.1.1-.2.1-.3-.1-.1-.2-.2-.3-.2 0 0-.6.1-.9-.3-.2-.2-.3-.5-.3-.8v-.1c.1-1.9 2.2-4.4 4.2-5 1.6-.4 2.4.2 3.3.8.4.3.7.5 1.2.7.1.1.3 0 .4-.1.1-.1 0-.3-.1-.4-.6-.3-1.4-1.1-1.8-1.7-1-1.6-1.3-2.6-.9-3.1C-7-14-6.2-14-6-14c.1 0 .3-.1.3-.1.1-.1.1-.3 0-.3 0 0-.8-.8-.8-1.6 0-.2 0-.3.1-.4.1-.1 1.4-2.2 5.4-1.5 1.9.4 3.3 2 4.2 4.7-.5.8-.7 1.7-.7 2.7 0 .7.1 1.4.4 2C3.7-6 6.7-4.1 7.7-3.6 7.2-3 6-1.4 5.5.6c-.4 1.5-.4 2.9-.1 4h-.1C5 5.3 4.4 6.5 3 6.7c-.9 0-1.7-.5-2.1-1.3 0-.2-.1-.2-.3-.2-.1 0-.2 0-.2.2"
           class="st3"
           id="path8033" />
      </g>
      <g
         transform="matrix(0 1.25 1.25 0 682.704 209.157)"
         id="g8035">
        <path
           d="M-.1-.1C-1.8-1.5-3.6-1.8-4.3-2h-.1c-.1-.2-.2-.4-.4-.5-.3-.2-.8-.3-1.2-.1h-.1c-.5.2-1 .4-1.2 1.3-.1.3.1.6.3.8.3.2.7.2 1.2 0s.8-.4 1.1-.7c.8 0 1.8.4 3 1.1C-.9.4-.3.9 0 1.2c-.3.3-1 .6-2.1.7-.8.1-1.8 0-2.3 0 .1-.5-.2-.9-.8-.9-.2 0-.4 0-.5-.1-.4-.1-.7-.2-1 .3-.5.8-.1 1.2.3 1.5.5.4.9.7 1.4.5.3-.1.4-.4.5-.6.6.1 1.5.3 2.4.3.7 0 1.3 0 1.7-.1-2.4 1.6-8.7 5.1-12.4 4.1-4.2-1.1-6.5-3.9-6.5-5.4 0-.1 0-.3.1-.4.4-.8 1.6-1.1 1.6-1.1.2 0 .3-.2.3-.4s0-.4-.2-.5c0 0-1.1-.6-1.1-1.6v-.1c.1-1 1.1-1.6 1.9-1.9.8-.4 1.5-.8 2.2-1.2.6-.3 1.1-.7 1.9-1.1 2.1-1.1 6.4-1.4 9.8 2.2C-1.4-2.8-.5-1.3-.1-.1"
           class="st7"
           id="path8037" />
      </g>
      <g
         transform="matrix(0 1.25 1.25 0 687.699 209.432)"
         id="g8039">
        <path
           d="M-.1-.1C-.4.9-1 2.1-2 3.5c-.1-.2-.4-.4-.6-.4-.1 0-.4 0-.6.1-.1.1-.2.2-.3.2-.4.3-.7.6-.4 1.2.2.5.5 1 1.3.8.7 0 1.1-.4 1.1-.8v-.2c0-.1 0-.2-.1-.3 1-1 1.6-2.1 2.1-3-.2 1-.3 2-.4 3.2v1.2c0 3.5 1 6.3 1.3 7.1-.5 1-3.5 6.1-8.3 5.2-1.1-.2-1.6-1-1.6-2.2 0-.5.1-.8.1-.8 0-.2-.1-.4-.2-.5-.2-.1-.4-.1-.5.1 0 0-1.5 1.4-2.5.6-.7-.6-1.2-2.1-1.2-3.8 0-.9.1-1.8.4-2.6.5-1.9 1.9-3.5 2.3-4 .5-.1 2.1-.3 5.6-2C-2.8 1.6-1.2.7-.1-.1"
           class="st7"
           id="path8041" />
      </g>
      <g
         transform="matrix(0 1.25 1.25 0 678.364 214.273)"
         id="g8043">
        <path
           d="M-.1-.1C-.6.5-1.2 1.3-1.6 2v-.6c0-1-.2-2-.6-3 .3-.4.4-.8.2-1.1 0-.1-.1-.1-.1-.2-.2-.4-.5-.8-.9-.9-.2 0-.5 0-.8.2-.4.2-.5.6-.5 1 0 .5.2.9.5 1.2.2.3.5.4.8.3l.1-.1v.1c.2.6.4 1.1.4 1.8v.1c0 1.2-.3 2-.4 2.5-.4-1-1-2.4-1.8-3.5-.4-.7-1-1.4-1.5-2C-7.5-3.5-8.7-4.9-8.7-7v-.1c.1-2.4 1.3-4.1 2.4-4.9.7-.5 1.3-.6 1.6-.5 1.1.3 1.7 1.6 1.7 1.6.1.1.2.3.4.3s.3-.1.4-.3c0 0 .8-2.2 2.5-2.2.5 0 1.7.7 2.7 1.7 1 1.1 1.6 2.6 1.6 4.5 0 1.6-.4 3-.6 3.5C3.4-3.2 1.5-2-.1-.1"
           class="st7"
           id="path8045" />
      </g>
      <g
         transform="matrix(0 1.25 1.25 0 687.026 216.223)"
         id="g8047">
        <path
           d="M-.1-.1c1.2 0 1.9-.2 2.5-.4l.1-.1c.3.3.5.4.8.5.2 0 .4 0 .6-.1l.2-.2c.3-.2.8-.5.8-1 0-.2-.1-.4-.2-.6-.3-.4-.9-.5-1.5-.3-.6.1-.9.6-.9 1-.4 0-.8.1-1.2.1-1.9.1-3-.5-3.6-.8.3 0 .7-.1 1.1-.2 1-.4 2-1 3.2-2 .3.1.7 0 1-.1.4-.2.6-.4.7-.7 0-.1.1-.2.1-.3.1-.2.2-.5.2-.7 0-.3-.1-.7-.8-.7-.9 0-1.7 1-1.7 1.7 0 .1 0 .2.1.3-2 1.3-3.8 1.5-4.4 1.5.6-1.3 1.6-2.9 3.1-4.4 1-.8 2.9-2.4 5.7-3 2.2-.5 5.2-.2 6.7.9.4.3.8.6.9 1.1.2.9-.9 2-1.3 2.3-.1 0-.2.2-.2.3v.1c0 .2.2.3.3.4 0 0 1.9.6 2.3 2v.4c0 1.7-2.3 5.5-6.5 6.4C5.1 3.8.9 3.1-2.7-.6c.6.3 1.5.5 2.6.5"
           class="st7"
           id="path8049" />
      </g>
      <g
         transform="matrix(0 1.25 1.25 0 699.135 211.467)"
         id="g8051">
        <path
           d="M-.1-.1c-.3-1.1-.5-2.5-.5-4.1 0-1.5.1-3.1.3-4.3.3.6.7 1.4 1.2 2.2.7 1.1 1.8 1.7 2.4 2 0 .6.5 1.1 1 1.4.4.2.8.2 1.1 0 .2-.2.3-.6.3-.8 0-.4-.2-.8-.5-.9l-.1-.1c-.4-.3-.8-.6-1.2-.4-.1 0-.2.1-.3.2-.4-.3-1-.7-1.5-1.5-.7-1-1-2.2-1.2-2.9.9.9 2 1.8 3.3 2.5C5.3-6.2 7-5.6 8.7-5c.5.2 1.1.4 1.6.6 3 1.1 4.1 4.1 4.1 6.4 0 .6-.1 1-.1 1.2-.4.7-2 1-2.6 1-.1 0-.2.1-.3.2-.1.1-.1.2-.1.3 0 0 .1.6.1 1.1 0 1-.2 1.3-.3 1.3-1.1.8-4.8.9-7-1C1.8 4.3.4 1.6-.1-.1"
           class="st7"
           id="path8053" />
      </g>
      <g
         transform="matrix(0 1.25 1.25 0 625.424 165.623)"
         id="g8055">
        <path
           d="M-.1-.1c-.3.3-1.5 1.8-2.4 4.3-.4 1-.7 2.1-.9 3-.1-.6-.4-1.4-1.1-2.3.2-.2.3-.5.2-.7l-.1-.2c-.1-.2-.2-.6-.6-.7-.2-.1-.4-.1-.6.1-.2.1-.4.4-.4.7 0 .3.2.6.4.9.2.1.4.3.5.3.2.4.3.7.4 1.1.1.5.1.9.1 1.3-.4-.8-1-1.5-1.6-2.2-.4-.5-1.9-2-4-3.2-.2-.6-.3-1.3-.3-2 0-2.1 1.1-3.7 1.8-3.9 1-.3 2.2.4 2.2.4h.3l.2-.2s.2-1.3 1-1.7c.8-.4 2.3.2 3.4 1.1C-.3-2.7 0-1.6 0-.8c0 .4-.1.6-.1.7"
           class="st7"
           id="path8057" />
      </g>
      <g
         transform="matrix(0 1.25 1.25 0 636.427 164.096)"
         id="g8059">
        <path
           d="M-.1-.1c.5-.4.8-.8 1.2-1.2l.2-.2c.3.1.6 0 .8-.2l.1-.1c.2-.2.5-.5.5-.8 0-.2-.1-.4-.3-.6-.4-.1-.8-.1-1.2.1-.5.2-.8.8-.6 1.2l.1.1H.6l-.5.5c-.8.6-1.3.7-1.6.8.8-5.4 3.1-8.7 6.5-9.4 1.1-.2 2.4 0 3.1.5.3.3.5.6.4.9-.3 1.1-.9 2.1-.9 2.2V-6c.1 0 .2.1.3.1 0 0 2.4-.2 2.6 1C10.8-1.6 7.7.9 3.3 1 1.2 1-.5.8-1.4.7-1 .5-.6.3-.1-.1"
           class="st7"
           id="path8061" />
      </g>
      <g
         transform="matrix(0 1.25 1.25 0 636.359 160.046)"
         id="g8063">
        <path
           d="M-.1-.1C-.6-.2-1.2-.3-2-.2c-.7.1-1.1.2-1.4.3-.1-.2-.2-.3-.4-.4-.2-.1-.4-.1-.6.1l-.2.1c-.2.2-.5.4-.4.9.1.5.4.7.9.6.6-.1.9-.3.9-.7.4 0 1.4.1 2 .2.7 0 1.2.4 1.3.5C-.7 3-2.6 5-4.8 6c-1.8.9-3.6 1-5.3.3-3.3-1.3-3.8-2.2-3.8-2.9 0-.2.1-.4.1-.7.3-.8 1.4-1.7 1.4-1.7.1-.1.2-.2.1-.3 0-.1-.1-.2-.2-.2s-1.3-.1-1.3-1.4V-1c0-.6 1-1.8 2.4-2.8.9-.6 3.4-2 5.8-1.2C-2.9-4-1-1.4-.1-.1"
           class="st7"
           id="path8065" />
      </g>
      <g
         transform="matrix(0 1.25 1.25 0 656.177 158.214)"
         id="g8067">
        <path
           d="M-.1-.1C-1-.4-1.2-1.8-1.2-1.8c0-.2-.1-.2-.2-.3-.1 0-.2 0-.3.1 0 0-.5.8-1.2.6-.7-.2-1.7-1.3-2.1-3.2v-.9c0-1.6.8-2.8.9-3 .3-.2 1.9-1 3.6-2.3.8-.6 1.6-1.5 2.2-2.4-.1.8-.3 1.9-1 2.9-.1-.1-.1-.1-.3-.1-.2 0-.3.1-.4.3-.4.5-.5.8-.4 1.1.1.3.2.4.4.5.3.1.5 0 .8 0 .2-.2.7-.3.7-.8l-.1-.2c0-.1-.1-.2-.1-.3.4-.6.5-.8.6-1.1.1 0 .1-.1.2-.3.2-.4.3-.8.4-1.2.1.6.2 1.1.3 1.8.8 3.1 2.4 4.6 3.4 5.4-.4 2.4-1.6 3.7-2.6 4.3C2.2 0 .7.2-.1-.1"
           class="st7"
           id="path8069" />
      </g>
      <g
         transform="matrix(0 1.25 1.25 0 643.699 163.13)"
         id="g8071">
        <path
           d="M-.1-.1C-.4-1-.6-2-.8-2.9l.1.1c.6.5 1.1.6 1.5.7.1.4.4.7.7.8.4.2.8.1 1-.1.1-.1.1-.3.1-.4 0-.3-.2-.7-.6-.8-.2-.1-.6-.2-.9 0l-.5-.5c-.2-.1-.3-.2-.4-.3-.5-.4-.7-.9-.8-1.2 1.4.6 4 .7 6.1.5 2.1-.1 2.9-.5 3.3-.6.5.5 2.5 2.1 2.5 4.9v.1c0 1-1.7 1.4-2.3 1.6-.1 0-.2 0-.2.2v.3s.3.5.3 1c0 .2-.1.4-.3.6-.4.4-1.3.6-2.4.6C2.4 4.4 1.1 3-.1-.1"
           class="st7"
           id="path8073" />
      </g>
      <g
         transform="matrix(0 1.25 1.25 0 713.485 187.914)"
         id="g8075">
        <path
           d="M-.1-.1c0-.5.1-.9.4-1.1.6-.7 2.9-1.6 4.4-.5.7.5 1.1 1.3 1.5 2.2.2.3.3.7.5 1 .7 1.1 1.6 2.1 2.6 2.7-1 .3-2.5 1.1-3.4 2.7-.2.4-.4.9-.6 1.3-.3.7-.6 1.4-1 1.8-.9 1.1-2.1 1.5-3.5 1.3-.9-.1-1.3-.2-1.9-.5-.6-.3-1.1-.4-1.5-.6-1-.3-1.3-.4-1.5-.9 0 0-.1-.1-.1-.3 0-1 1-1.6 1-1.6.2-.1.2-.3.2-.4-.1-.1-.2-.2-.4-.2 0 0-1.1.4-1.4-.3 0-.1-.1-.3-.1-.5 0-1 .6-2.5 2.4-3.4 1-.5 1.9-.6 2.8-.3.1 0 .3 0 .3-.1.1-.1.1-.3 0-.3C0 1.1-.1.4-.1-.1"
           class="st7"
           id="path8077" />
      </g>
      <g
         transform="matrix(0 1.25 1.25 0 697.427 173.957)"
         id="g8079">
        <path
           d="M-.1-.1c-.2 0-.5 0-.8-.1-.6-.2-1.4-.5-1.8-.7.1-.4-.2-.7-.5-.9-.4-.3-.8-.3-1 .1-.2.4-.1.7.1 1l.1.2c0 .2.2.3.4.3s.4-.1.5-.2c.2.3.6.5 1.1.8.5.3.9.5 1.3.6-3 1.3-6.8 1.3-8.9 0-1.4-.9-2.5-3.4-2.5-4.6V-4c.4-.9 1.9-.5 1.9-.5.1.1.3 0 .3-.1.1-.2 0-.3-.1-.4 0 0-.7-.5-.7-1.2 0-.1 0-.3.1-.4.2-.4 1.7-1.5 4.5-1 3.9.6 5.5 5.5 6 7.5"
           class="st7"
           id="path8081" />
      </g>
      <g
         transform="matrix(0 1.25 1.25 0 714.119 177.014)"
         id="g8083">
        <path
           d="M-.1-.1c-1.2-.4-1.8-1.5-2-1.9.4-.4 1.3-1.7 1.5-4.4v-.8c0-1-.1-2-.3-2.9.7 1.2 1.6 2.7 2.6 3.4 1.5 1.1 3.3 1.2 4 1.3.1.4.2 1.2.2 1.9 0 .3 0 .6-.1.8-.2.9-1.8.8-2.4.7-.1 0-.2 0-.2.1-.1 0-.1.1-.1.2 0 0 .1.4.1.7 0 .4-.1.6-.1.6C1.9.2.9.3-.1-.1"
           class="st7"
           id="path8085" />
      </g>
      <g
         transform="matrix(0 1.25 1.25 0 699.895 173.324)"
         id="g8087">
        <path
           d="M-.1-.1c-.2.4-.4.8-.7 1.2-.2.3-.4.5-.8.8-.2-.1-.5-.1-.8.1-.5.3-.6.9-.3 1.3.2.2.3.3.5.3.3 0 .6-.2.7-.4l.1-.1c.3-.1.3-.4.2-.7C-.1 1.7.5 1.1.9.5H1c.3 1.1.5 2.2.5 3.3 0 3-1.1 5-2.2 5.5-1.3.5-2.7.6-4.4.3-.8-.2-1.9-.6-2.5-1-.4-.3-.7-.7-.7-1.4s.3-1.4.3-1.4c.1-.1 0-.3 0-.3-.1-.1-.2-.1-.3-.1-.1 0-.6.2-.9-.3-.1-.3-.2-.6-.2-1 0-1.3.7-2.8 1.3-3.4 3.9.5 6.6-.3 8-.8"
           class="st7"
           id="path8089" />
      </g>
      <g
         transform="matrix(0 1.25 1.25 0 701.817 177.157)"
         id="g8091">
        <path
           d="M-.1-.1C-.4-.5-.7-1-.9-1.4c.3-.2.8-.4 1.5-.5.2 0 .4 0 .5-.1h.8c.1.4.5.5.8.6l.2.1c.2.1.5.1.7-.1.2-.1.4-.4.4-.6 0-.4-.4-.7-.9-.8-.4-.1-.7 0-1 .2-.5-.3-1.2-.4-2-.3-.4 0-.8.1-1.1.2 0-.1.1-.2.1-.3.1-.1.3-.2.4-.4C.8-4.6 2.7-6.3 4.9-6.6c1.6-.3 3 .8 3.6 1.3.8.7 1.2 1.4 1.2 1.7 0 .8-.9 1.3-.9 1.3-.2.1-.2.2-.2.3l.1.3c.4.2.9.6 1 1v.2c0 .6-.6 2-1.8 3-.7.5-1.8 1.2-3.3.9C2.3 3.1 1 1.4-.1-.1"
           class="st7"
           id="path8093" />
      </g>
      <g
         transform="matrix(0 1.25 1.25 0 694.649 176.71)"
         id="g8095">
        <path
           d="M-.1-.1c0-.4-.1-.6-.1-.9 0-.2-.1-.4-.2-.7l.2-.1c.1-.1.2-.2.2-.4 0-.3-.2-.6-.4-.8-.4-.4-.7-.4-1.2-.1-.1.1-.4.3-.4.6 0 .1 0 .3.1.4 0 .1.1.1.1.3.1.2.1.3.3.4.1 0 .3.1.4.1 0 .2.1.4.1.7 0 1-.3 1.9-.5 2.4-.1-.9-.6-1.7-1-2.7-.6-1.2-1.2-2.5-1.2-3.8 0-.4.1-.8.2-1.2.3-1.1 1-1.9 2-2.4 1.3-.7 2.8-.5 3.2-.3.5.2.6.8.6 1.3v.5l.1.3c.1.1.2.1.3 0 .2-.3.8-.6 1.2-.5.2.1.8.9.8 2.2 0 .8-.2 1.6-.6 2.4C3.5-1.1 1.3.5-.2 1.5c.1-.5.1-1 .1-1.6"
           class="st7"
           id="path8097" />
      </g>
      <g
         transform="matrix(0 1.25 1.25 0 725.999 248.657)"
         id="g8099">
        <path
           d="M-.1-.1c2.5-.1 5.6 2.5 6.3 6.7v.7c0 1.3-.6 3-1.8 4-.9.6-1.9.8-3 .5-.1-.1-.3 0-.3.2-.2.6-1.2 2.5-2.7 2.3-3.3-.4-3.7-3.5-3.7-4.9 0-1 .2-2 .5-3.1C-3.7 2.7-.6.3-.1-.1"
           class="st7"
           id="path8101" />
      </g>
      <g
         transform="matrix(0 1.25 1.25 0 722.365 221.998)"
         id="g8103">
        <path
           d="M-.1-.1v-.2c.5-1.5 3.4-2.2 3.5-2.2.1 0 .2-.2.2-.3 0-.1-.1-.3-.3-.3 0 0-1.2 0-1.8-.6-.1-.1-.2-.3-.2-.6v-.3c.1-.6 3.5-4.9 9-4.3 5.3.6 7.5 5.2 8.3 8-.9-.6-2.3-1.4-4.7-2 0-.5-.4-.9-.9-1-.6-.2-1.2 0-1.5.4-.1.2-.2.4-.2.6 0 .6.5.8.9 1l.2.1c.2.2.5.2.8 0 .2-.1.3-.2.5-.4.1 0 .2.1.3.1 1.2.6 3.1 1.4 4.2 2.4-1.2-.3-3-.6-5.3-.4-4.6.5-6.7 2.4-8.2 3.8l-.2.1C3.6 3.6-.1 1.3-.1-.1"
           class="st7"
           id="path8105" />
      </g>
      <g
         transform="matrix(0 1.25 1.25 0 743.195 229.593)"
         id="g8107">
        <path
           d="M-.1-.1c-.3-.2-.5-.6-.5-1 0-1 .6-2.1.6-2.1.1-.1.1-.3 0-.4-.1-.1-.3-.1-.4 0-.6.4-1.9 1.1-2.5.8-.1 0-.2-.1-.3-.5-.1-.5-.1-1-.1-1.5 0-4.2 2.7-7.8 7.3-9.8 3.1-1.3 6.2-1.1 8.3-.7-1.3.5-2.9 1.1-4.3 2.2-.3-.3-.7-.3-1.1-.1-.7.3-1.1 1-.8 1.6.1.3.3.5.5.6.4.2.9-.1 1.2-.2l.2-.1c.3-.1.5-.5.5-.9v-.2c1.4-.7 3.6-1.5 5.3-1.8-1.3 1.2-2.8 2.8-4.1 5.6-.8 1.1-1.1 2.8-1.1 4.5 0 .9.1 1.7.2 2.3C7.3-.6 1.2.7-.1-.1"
           class="st7"
           id="path8109" />
      </g>
      <g
         transform="matrix(0 1.25 1.25 0 724.421 281.602)"
         id="g8111">
        <path
           d="M-.1-.1c.1.2.2.9.2 1.7 0 2-.6 4.7-3.6 7-2.2 1.6-4.8 1.5-6.6 1.2-1.9-.4-3.5-1.2-4.1-1.6 1.8.1 3.5-.7 4.7-2.2.4-.5.6-1.1.9-1.7.3-.8.6-1.5 1.1-2.2C-5.3-.7-.8-.2-.1-.1"
           class="st7"
           id="path8113" />
      </g>
      <g
         transform="matrix(0 1.25 1.25 0 721.169 263.67)"
         id="g8115">
        <path
           d="M-.1-.1C1.2 2 5.2 2.7 6.4 2.8c-.4.5-1.3 1.6-2.1 3.7-1 2.5-3.7 3.2-4.9 3-.4 0-.5-.2-.5-.3 0-.4.8-1.1 1.3-1.5l.1-.2-.2-.1s-2.2-.1-2.5-1.2v-.7c0-1.4.9-3 1.6-4.3.3-.5.6-.9.7-1.3"
           class="st7"
           id="path8117" />
      </g>
      <g
         transform="matrix(0 1.25 1.25 0 647.042 203.092)"
         id="g8119">
        <path
           d="M-.1-.1C-.1.4.1 1.4.4 2c.4.7 1.3 1.5 2.3 2-.8.6-1.2 1.6-1.4 2.2-.2.6-.2 1.4-.2 1.7-.2.1-.7.2-1.8-.4C-1.6 7-2 6.5-2 5.9c0-.4.3-.9.5-1.2 0-.1.1-.2 0-.3l-.2-.2c-.6-.3-1.2-.5-1.2-1 0-.3.3-1.4 1-2.2.4-.5 1-1.1 1.8-1.1"
           class="st7"
           id="path8121" />
      </g>
      <g
         transform="matrix(0 1.25 1.25 0 657.064 206.047)"
         id="g8123">
        <path
           d="M-.1-.1c0-.3 0-.9.2-1.4.1-.4.5-1.1 1-1.5.2-.2.6-.7.7-.8 0 0 .2-.2.1-.3 0-.2-.2-.3-.3-.4-.1-.1-.5-.4-.8-.6-.7-.4-1.4-1-1.7-1.5-.2-.3-.3-1-.3-1.5.4.3 1 .6 1.8.8.6.2 1.3.2 1.9.3 1.2 0 2.4.1 2.8 1.2.1.3.2.7.2 1.2 0 .7-.2 2.1-1.3 3.8C3.3.6 1.5 1.2.5.8.2.6 0 .3-.1-.1"
           class="st7"
           id="path8125" />
      </g>
      <g
         transform="matrix(0 1.25 1.25 0 675.62 154.338)"
         id="g8127">
        <path
           d="M-.1-.1C0 .3.2 1 .8 1.2c.8.4 2.2 0 2.8-.2 0 .8-.3 2.7-1.5 3.7-.6.6-1.5.7-2.4.6-1.2-.3-1.8-.8-1.8-1.5 0-.4.3-.8.3-.8.1-.1 0-.2 0-.3-.1-.1-.2-.1-.3 0 0 0-1.3 1-1.9.5-.7-.7-1.2-2.4-1.2-3.5 0-.5.1-2.9 1.4-4.5.2-.2.4-.5.6-.9.3-.5.6-.9.8-1.1.8-.5 1.7-.3 2.2-.1-.6.5-2.1 2-2.1 4-.1.7 0 1.3.3 1.9.2.6.6.9 1 1 .3.1.7 0 .9-.1"
           class="st7"
           id="path8129" />
      </g>
      <g
         transform="matrix(0 1.25 1.25 0 677.14 160.508)"
         id="g8131">
        <path
           d="M-.1-.1v-.1c0-.4 0-1.3-.3-1.6-.3-.2-.9.3-1.3.5-1 .3-1.8.3-2.1.2-.1-.1-.2-.4-.2-.7 0-.3.1-.5.1-.5l-.1-.2h-.2s-.5.3-.9.3c-.2 0-.3-.1-.4-.1 0 0-.2-.1-.3-.3-.2-.6-.3-1-.3-1.4 0-1.5 1.2-3 1.7-3.4l.1-.1c1.6-1.1 3.1-1.1 4.6 0 1 .8 1.6 1.7 1.6 2.8V-4.4c0 .1.1.2.2.2C2.3-4.1 4-2.7 4-.4c0 .3 0 .6-.1.9C3.3 2.8.1 3.2-1 3.2c.6-1.1.9-2.4.9-3.3"
           class="st7"
           id="path8133" />
      </g>
      <g
         transform="matrix(0 1.25 1.25 0 676.19 282.724)"
         id="g8135">
        <path
           d="M-.1-.1c-.9-.4-1.2-2.4-1.2-3 0-.2-.1-.4-.3-.4-.2 0-.4 0-.5.2 0 0-.6.9-2 1-1.3.2-2.2-1.4-2.5-4.2-.1-.6-.1-1.1-.1-1.6 0-3.6 1.4-4.8 1.6-5 .4-.2 2.7-1.2 4.7-3.1 1.6-1.4 2.9-3.2 3.9-4.6-.3.9-.6 2.2-.9 4l-.3.1-.3.1c-.4.2-.7.5-.5 1.2.1.5.4 1 1.2.9 1.1-.1 1.2-.6 1.2-.8v-.1c-.1-.4-.3-.9-.6-1.2.2-1.1.5-2.3 1.1-3.6.2 4.9 1.6 7.8 2.1 8.6C7.8-9.2 9.4-7.7 10-7.2 8.5-3.3 5.6-1.5 4-.8 2.1.1.6.2-.1-.1"
           class="st8"
           id="path8137" />
      </g>
      <g
         transform="matrix(0 1.25 1.25 0 645.974 287.337)"
         id="g8139">
        <path
           d="M-.1-.1C-.8-.8-2.3-1.8-5-1.8c-.1-.2-.2-.4-.4-.5-.3-.3-.7-.3-1.1-.2h-.2c-.5.2-1.4.4-1.4 1.3 0 .4.1.7.4.9.4.3.8.3 1.2.2.8-.2 1.3-.5 1.5-.9 1 .1 2.3.4 3.1.9.5.3.9.6 1.1.9-.5 0-1.2 0-1.8.1-.8.2-1.4.6-1.9 1h-.2c-.1 0-.2-.1-.3-.1-.4-.1-.9-.3-1.3.4-.5.7-.4 1.1.1 1.6.3.3.7.6 1.1.5.2 0 .4-.1.5-.2.3-.5.6-1 .6-1.5.5-.4 1.2-.8 2.2-.8.4 0 .5.1.9.3-.9 1.4-2.4 3.5-4.4 5.1-2.5 1.9-4.9 2.6-6.3 2.7-2.3.3-5.3-.9-7-2.3-.7-.6-1.2-1.2-1.3-1.6-.1-1.6 1.9-3.3 2.6-3.9.1-.1.2-.3.2-.5s-.2-.3-.4-.3c-.8-.2-3-.8-3-2 0-1 1.6-3.9 6.4-6.3 2.6-1.3 6.1-1.1 9 .5C-2.4-5-.7-2.7-.1-.1"
           class="st8"
           id="path8141" />
      </g>
      <g
         transform="matrix(0 1.25 1.25 0 639.554 290.46)"
         id="g8143">
        <path
           d="M-.1-.1c-.3.7-.6 1.5-1 2.4-.2-1.1-.3-1.9-.4-2.7v-.5c.1 0 .2 0 .3-.1.3-.2.4-.4.4-.7v-.4c-.1-.4-.2-.9-.5-1.1-.2-.1-.5-.2-.8-.1-.5.1-.9.7-.9 1.4 0 .6.3 1 .7 1.2 0 .4-.1.7-.1 1.1 0 1 0 1.6.2 2.5C-4-1.7-8.4-3.5-9.4-3.9c-.3-.7-.4-1.7-.4-2.5 0-3.5 2.5-6.3 3.2-6.4 1.1-.2 1.9.5 1.9.5.1.1.3.2.5.1s.3-.2.3-.4c0 0 .1-.7.7-1.1.6-.3 3.7.3 6.2 3.4C5-8 5.1-6.8 5.2-6.4c-.9.5-3.5 2.7-5.3 6.3"
           class="st8"
           id="path8145" />
      </g>
      <g
         transform="matrix(0 1.25 1.25 0 649.096 294.14)"
         id="g8147">
        <path
           d="M-.1-.1c-1-.7-1.9-1.3-3-1.5.4-.3 1.4-.9 2.9-.9.7 0 1.3.1 1.8.2v.1c0 .4.3.9.7 1.1.3.2.6.2.9.1l.2-.1c.4-.2 1-.5 1-1.1 0-.2-.1-.4-.2-.6-.3-.6-1-.7-1.6-.5-.3 0-.5.2-.7.3-.5-.3-1.6-.6-2.7-.5-.6 0-1.2.2-1.6.3.3-.3.6-.7.9-1C-.5-5 .2-5.3.4-5.3c.3.2.8.2 1.1.1.4-.1.7-.3.8-.5l.1-.2c.2-.3.4-.6.4-1 0-.2-.1-.7-.8-.8-.5-.1-1 .1-1.4.5-.4.3-.6.8-.6 1.2-.6.1-1.7.5-2.7 1.4l-.7.7c.5-1.2 1.1-2.7 1.9-4.1 1.3-2.3 3.9-5.2 7.1-5.7 3.8-.6 6.7 1.3 7 1.8.1.2.1.3.1.5 0 .8-.8 1.5-.8 1.5-.1.1-.1.2-.1.3v.2c.1.2.2.3.4.3.4 0 1.6.2 1.9.7.1.2.2.7.2 1.5 0 .9-.2 3.9-2.5 6.3-3 3.1-6.5 2.8-7.8 2.5-1.7-.3-3-1.2-4.1-2"
           class="st8"
           id="path8149" />
      </g>
      <g
         transform="matrix(0 1.25 1.25 0 661.682 292.992)"
         id="g8151">
        <path
           d="M-.1-.1C-1.9-2.5-2.7-6-2.8-8.8-2.2-7.8-1.4-7 0-6v.4C-.1-5 .5-4.4 1-4c.4.2.9.2 1.2 0 .3-.2.4-.7.4-1 0-.5-.2-.8-.5-1L2-6.2c-.4-.3-.9-.6-1.4-.5-.8-.7-1.9-1.8-2.5-3.6.6.3 1.1.6 1.8 1.1.9.7 1.9 1.6 3.5 2 4.2 1.3 7.4.3 7.9.2 1.4-.3 3.3 1 3.5 2v.2c0 1.4-1.8 4.5-4 5-.2 0-.3.2-.3.4s.1.4.2.4c.4.2 1.7 1 1.4 1.8-.3.7-2.5 1.7-5.3 1.7-2.5 0-4.4-1.4-6.9-4.6"
           class="st8"
           id="path8153" />
      </g>
      <g
         transform="matrix(0 1.25 1.25 0 577.449 234.37)"
         id="g8155">
        <path
           d="M-.1-.1v.8c-.1.6-.2 1-.5 1.3-.2.3-1 .6-1.9.6-.6 0-1.1-.1-1.4-.4-.2-.2-.2-.9-.2-1.1V1l-.1-.2c-.1-.1-.2-.1-.3-.1-.2.1-.9.3-1.3 0-.3-.3-.5-.9-.5-1.7 0-1.7.9-3.8 3.1-5 2-1.1 3.7-1.1 4.8-1 1.6.3 2.9 1 3.7 1.6C2.7-4.7 0-2.5-.1-.1"
           class="st8"
           id="path8157" />
      </g>
      <g
         transform="matrix(0 1.25 1.25 0 572.011 242.143)"
         id="g8159">
        <path
           d="M-.1-.1c2 1.7 3.9 2.1 4.9 2.2-.9 1-2.9 3.1-4.8 4.2-1.3.8-3 .8-4.2.1C-5 6-5.4 5.2-5.4 4.3c.1-2.1 3-4.1 5.3-4.4"
           class="st8"
           id="path8161" />
      </g>
      <g
         transform="matrix(0 1.25 1.25 0 571.252 243.262)"
         id="g8163">
        <path
           d="M-.1-.1c.1-.4.3-1.1.3-2 0-.7-.1-1.3-.3-1.8-.3-1-1.1-2.5-2.3-3.4 0-.4-.2-.9-.6-1.1-.2-.1-.4-.1-.5 0l-.2.1c-.3.2-.6.4-.5 1 .1.6.4.8.9.8.2 0 .4 0 .6-.1 1.2.9 2 2.7 2 4.6v.7c-.6-1.4-1.8-3.4-4.2-4.3-.1-.2-.2-.3-.3-.4h-.1c-.2-.3-.7-.7-1.2-.3-.2.2-.3.4-.3.6 0 .2 0 .4.3.6.6.5 1 .6 1.3.3l.1-.2C-3-4-2.2-2.4-2-1.6c-1.2-.8-2.8-1.6-4.7-1.5-3.1.1-4.5 1.2-5 1.7-.6-.5-2.3-2-2.3-3.4 0-.2 0-.4.1-.6.2-.6 1.3-.8 1.7-.8.1 0 .2-.1.2-.2s0-.2-.1-.3c0 0-1-.7-1-1.6 0-.2 0-.3.1-.5.1-.5.7-.9 1.6-1.2 1.7-.6 4.5-.6 6.1.3.1.1.2.1.3 0v-.2c-.1-.5-.2-1-.2-1.5 0-3 2.1-4.3 2.7-4.5.8-.2 1.4.6 1.4.6.1.1.1.1.2.1s.2-.1.2-.1.9-1.2 1.8-.8c2.3 1.2 2.6 3.2 2.6 4.2v.5s-.5 3.2-.5 5.8v1.1c.1 1.5.5 3 .8 4.4.2.8.3 1.4.4 2C2.8 2 .7.5-.1-.1"
           class="st8"
           id="path8165" />
      </g>
      <g
         transform="matrix(0 1.25 1.25 0 659.121 262.904)"
         id="g8167">
        <path
           d="M-.1-.1C1 1.4 2.8 1.8 3.8 2c1.6.3 3.1.1 3.7.1-1.3 2.6-2.4 4.2-3.5 5-1.3.9-2.4.9-3.2.8C0 7.7-.7 7.2-1 6.8c-.1-.1-.2-.3-.2-.6s.2-.8.9-1l.1-.2-.2-.2C-1.6 4.8-3 3.6-3 2c0-.2 0-.5.1-.7.2-.7.5-1.2 1-1.5.6-.2 1.4-.1 1.8.1"
           class="st8"
           id="path8169" />
      </g>
      <g
         transform="matrix(0 1.25 1.25 0 581.335 296.18)"
         id="g8171">
        <path
           d="M-.1-.1v.3c0 1.2.1 2.4.2 3.4-.2-.3-.4-.5-.6-.7-.3-.3-.5-.7-.8-1.1.1-.1.1-.2.1-.3 0-.3-.3-.6-.8-.8-.4-.2-1-.2-1.3.2-.1.1-.1.3-.1.4 0 .4.5.6.9.8l.2.1c.2.1.4.1.6 0 .6 1 1.1 1.7 1.5 2.2-1.2-.7-2.8-1.3-4.5-1.2-2.4.2-3.9 1.1-4.5 1.9-.4-.6-.8-1.6-.7-2.6C-9.8 1.3-8.6.6-8.6.6l.1-.2c0-.1 0-.2-.1-.3 0 0-.3-.3-.3-.9 0-.4.1-.7.4-1 2-2.7 5-2.2 5.5-2 1.2.2 2.9 1.7 2.9 3.7"
           class="st8"
           id="path8173" />
      </g>
      <g
         transform="matrix(0 1.25 1.25 0 602.702 297.933)"
         id="g8175">
        <path
           d="M-.1-.1c.4-.4 1-1.1 1.5-2 .3-.5.6-1.4.6-2.3C2-5 1.9-5.5 1.7-6v-.1C1-7.2 0-9.1-.2-10.8c.4 0 1.2.2 1.9.7.4.3.7.6 1 1-.2.5-.1.8.2 1.1.2.1.6.4.9.3.1 0 .2-.1.3-.1.2-.3.4-.7.4-1.1 0-.4-.2-.6-.5-.6h-.7c-1-1.4-2.2-1.9-2.9-2.1 1.4-.7 2.6-.6 3.4-.5.2.3.4.4.6.6.3.2.6.2.8 0 .1-.1.2-.4.2-.6 0-.3-.1-.6-.4-.7l-.1-.2c-.3-.2-.7-.4-1-.3-.2 0-.3.2-.3.4v.1c-1.4-.3-2.6-.1-3.4.2 1-1.1 2.7-2.8 5.7-3.4 1.2-.2 2.9.2 4.3 1.1 1.5 1 2.5 2.8 2.5 3.4v.1c0 1-1.1 1.9-1.2 1.9-.1 0-.1.1-.1.2s.1.2.1.2 1.1.6.9 1.7c-.1 1-3.4 2.7-5.5 2.6l-.2.2-.1.2v.2c0 .5-.1 3.4-2 4.3C2.6 1 .7.2-.1-.1"
           class="st8"
           id="path8177" />
      </g>
      <g
         transform="matrix(0 1.25 1.25 0 587.874 296.21)"
         id="g8179">
        <path
           d="M-.1-.1c-.4.3-1.4 1.3-1.8 2.8-.1 0-.2 0-.2.1l-.2.1c-.4.2-.7.4-.7.7 0 .2 0 .3.1.4.3.3.8.3 1.2.2.4-.2.7-.5.7-.8v-.1c0-.1-.2-.3-.3-.4.1-.4.3-.7.6-1.1.3-.4.8-.6 1-.7C.6 2.3 1 3.9 2 5.5c.3.6.5 1.2.5 2 0 1.1-.4 2-.6 2.3-.5.8-2.6 3.1-6.9 1.2-.5-.3-1.1-.8-1.2-1.7 0-.1-.1-.3-.3-.3-1.2 0-1.8-.9-2.1-1.7-.3-1-.5-2-.5-3 0-1.1.2-1.7.3-2 .2-.9 1-2.8 3.8-3.4 1.8-.3 4 .6 4.9 1"
           class="st8"
           id="path8181" />
      </g>
      <g
         transform="matrix(0 1.25 1.25 0 585.576 298.37)"
         id="g8183">
        <path
           d="M-.1-.1C0-.3 0-.6.1-.8c.1-.4.3-.8.5-1.2.2 0 .3 0 .4-.1.2-.1.3-.3.3-.7C1.3-3.4 1-4 .4-4c-.2 0-.3 0-.4.1-.1.1-.2.3-.2.5v.6c.1.3.2.4.2.5-.6.8-.9 1.6-1 2.2 0-.5-.1-1.1-.2-1.6v-.1c0-.6-.1-1.2-.1-1.9 0-1.8.4-3 1.4-3.7.8-.6 2-1.2 3.4-1 .8.1.9.5.9 1.1v.6l.1.2h.3c.7-.3 1.6-.4 2-.1 1.2.7 1.5 2.1 1.5 3.1v.6c-.8-.3-2.6-.7-4.8.3C1.9-1.9.7-.9-.1-.1"
           class="st8"
           id="path8185" />
      </g>
      <g
         transform="matrix(0 1.25 1.25 0 588.476 313.873)"
         id="g8187">
        <path
           d="M-.1-.1c0-.9 0 0 0 0"
           class="st8"
           id="path8189" />
      </g>
      <g
         transform="matrix(0 1.25 1.25 0 677.14 244.764)"
         id="g8191">
        <path
           d="M-.1-.1c0-.3.1-.5.3-.7.1-.1.5-.2.7-.2.2 0 .4.1.5.2.6.8.9 1.6.9 2.4 0 .3 0 .5-.1.8-.5 2.3-3.1 2.9-3.7 3 0-.2-.2-.7-.2-1.2 0-.4.1-.7.2-1C-1 2.4.4 1.7.4 1.7l.1-.1v-.1c0-.1-.6-.9-.6-1.6"
           class="st8"
           id="path8193" />
      </g>
      <g
         transform="matrix(0 1.25 1.25 0 675.171 244.016)"
         id="g8195">
        <path
           d="M-.1-.1c-.4.4-.6.9-.6 1.6 0 .4.1.9.3 1.2-.5.4-1.1.9-1.4 1.4-.3.5-.4 1-.4 1.6 0 .6.1 1.2.2 1.5-.2.1-.5.2-.7.2-.5.1-1.2 0-1.3-.5-.1-.4 0-.7.3-1v-.1l-.1-.1c-.7-.3-2.1-1.4-2.1-2.8v-.4c.1-.4.7-.5.9-.6l.1-.1v-.2s-.2-.3-.2-.6c0-.1 0-.2.1-.3.7-1.1 2.8-.9 2.8-.9h.1v-.1-.3c0-.3.1-.7.6-.9.5-.2 1.8-.1 2.7.7-.5.2-1 .4-1.3.7"
           class="st8"
           id="path8197" />
      </g>
      <g
         transform="matrix(0 1.25 1.25 0 553.966 216.947)"
         id="g8199">
        <path
           d="M-.1-.1c.6.4 1.5.5 2.5.5 1.4 0 3.1 0 4.7 1.1-2.4 1.2-2.8 3-2.9 4.1-.2-.3-.4-.8-.8-1.3-.3-.2-.7-.5-1.1-.8-.3-.3-.7-.6-1-.9C.4 1.8.1.6-.1-.1"
           class="st8"
           id="path8201" />
      </g>
      <g
         transform="matrix(0 1.25 1.25 0 565.471 215.153)"
         id="g8203">
        <path
           d="M-.1-.1c-.4-1.7-.6-3.3-.6-4.7 0-2.1.5-3.5.9-4.3v.1c.2.8.6 2.3 1.7 3.3.4.4.8.7 1.2 1 .3.2.7.5.9.7.3.2.8.8.9 1 .1.2.1.3.1.4 0 .4-.2.8-.4 1.3v.1l.1.1.2.1c.5.2 1 .4 1.3 1 .1.4.2.8.2 1.2 0 .8-.2 1.6-.5 2.4-.2.7-.4 1.3-.4 2C3.3 4.6.7 3.1-.1-.1"
           class="st8"
           id="path8205" />
      </g>
      <g
         transform="matrix(0 1.25 1.25 0 557.726 372.678)"
         id="g8207">
        <path
           d="M-.1-.1c0-.2-.1-.3-.3-.3h-14.1c-.1 0-.1 0-.1-.2v-4.5c0-.2-.1-.3-.3-.3H-17c-.1 0-.2.1-.2.3V7.4c0 .1.1.2.2.2h2.2c.1 0 .3-.1.3-.2V2.8c0-.1 0-.2.1-.2H-.3c.2 0 .3-.1.3-.3V-.1"
           class="st4"
           id="path8209" />
      </g>
      <g
         transform="matrix(0 1.25 1.25 0 581.841 366.873)"
         id="g8211">
        <path
           d="M-.1-.1C-.7.1-1.6.2-4 .2-6.5.2-7.3.1-7.9-.1c-1.4-.5-2.3-1.5-2.3-3.3 0-1.7.9-2.8 2.3-3.2.6-.2 1.4-.3 3.9-.3 2.4 0 3.3.1 3.9.3 1.4.5 2.2 1.5 2.2 3.2.1 1.8-.8 2.8-2.2 3.3m.8-9.4c-1.1-.4-2-.5-4.7-.5s-3.7.1-4.7.5c-2.7.9-4.1 3.1-4.1 6.2 0 3 1.4 5.3 4.1 6.2 1.1.3 2 .5 4.7.5s3.7-.1 4.7-.5C3.4 2 4.8-.3 4.8-3.3c0-3.1-1.4-5.3-4.1-6.2"
           class="st4"
           id="path8213" />
      </g>
      <g
         transform="matrix(0 1.25 1.25 0 590.66 351.526)"
         id="g8215">
        <path
           d="M-.1-.1c-.1 0-.2.1-.2.3v2.5c0 .2.1.2.2.2H8L-.1 9.5c-.2.2-.2.3-.2.5v2.9c0 .1.2.2.3.1l6.4-5.4 10.1 6c.2.1.3 0 .3-.2v-2.8c0-.2 0-.3-.2-.4L8.7 5.6l3.2-2.7h4.7c.2 0 .3-.1.3-.2V.2c0-.1-.1-.3-.3-.3H-.1"
           class="st4"
           id="path8217" />
      </g>
      <g
         transform="matrix(0 1.25 1.25 0 616.231 372.678)"
         id="g8219">
        <path
           d="M-.1-.1c0-.2-.1-.2-.3-.2h-6.8L-17-5.4c-.1 0-.2 0-.2.2v2.6c0 .1.1.3.2.4l6.7 3.4v.1L-17 4.7c-.2.1-.2.2-.2.4v2.5c0 .2.1.3.2.2l9.9-5.1h6.8c.2 0 .3-.1.3-.3V-.1"
           class="st4"
           id="path8221" />
      </g>
      <g
         transform="matrix(0 1.25 1.25 0 640.567 366.873)"
         id="g8223">
        <path
           d="M-.1-.1C-.7.1-1.6.2-4 .2-6.5.2-7.3.1-7.9-.1c-1.4-.5-2.3-1.5-2.3-3.3 0-1.7.9-2.8 2.3-3.2.6-.2 1.4-.3 3.9-.3 2.4 0 3.3.1 3.9.3 1.4.5 2.2 1.5 2.2 3.2.1 1.8-.8 2.8-2.2 3.3m.8-9.4c-1.1-.4-2-.5-4.7-.5s-3.7.1-4.7.5c-2.7.9-4.1 3.2-4.1 6.2s1.4 5.3 4.1 6.2c1.1.3 2 .5 4.7.5s3.7-.1 4.7-.5C3.4 2 4.8-.3 4.8-3.3S3.4-8.6.7-9.5"
           class="st4"
           id="path8225" />
      </g>
      <g
         transform="matrix(0 1.25 1.25 0 677.772 370.022)"
         id="g8227">
        <path
           d="M-.1-.1c-.2 0-.2 0-.4.1L-8 6.2c-.8.7-1.6 1.1-2.6 1.1-1.3 0-2.3-.8-2.3-2.3 0-1.4.8-2.2 2.2-2.4.1 0 .2-.1.2-.3L-11 .1c0-.2-.2-.2-.3-.2-2 .2-4.1 1.9-4.1 5.2 0 3.3 2.1 5.2 4.8 5.2 1.5 0 2.8-.6 4-1.7l6-5V10c0 .1.1.2.3.2h2c.2 0 .3-.1.3-.2V.2c0-.2-.1-.3-.2-.3H-.1"
           class="st4"
           id="path8229" />
      </g>
      <g
         transform="matrix(0 1.25 1.25 0 701.881 369.88)"
         id="g8231">
        <path
           d="M-.1-.1c0 1.1-.5 1.8-1.4 2.2-.5.1-1.1.2-5 .2s-4.4-.1-5-.2c-.9-.3-1.4-1.1-1.4-2.2s.5-1.8 1.4-2.1c.5-.2 1.1-.2 5-.2s4.4.1 5 .2c1 .3 1.4 1 1.4 2.1m-6.3-5.3c-4 0-4.8.1-5.5.4-2.1.7-3.4 2.4-3.4 5s1.2 4.3 3.4 5c.7.2 1.5.4 5.5.4s4.8-.1 5.5-.4c2.2-.7 3.4-2.4 3.4-5S1.3-4.3-.9-5c-.7-.3-1.5-.4-5.5-.4"
           class="st4"
           id="path8233" />
      </g>
      <g
         transform="matrix(0 1.25 1.25 0 712.789 370.022)"
         id="g8235">
        <path
           d="M-.1-.1c-.2 0-.2 0-.4.1L-8 6.2c-.8.7-1.6 1.1-2.6 1.1-1.3 0-2.3-.9-2.3-2.3s.8-2.2 2.2-2.4c.1 0 .2-.1.2-.3L-11 .1c0-.2-.2-.2-.3-.2-2 .2-4.1 1.9-4.1 5.2 0 3.3 2.1 5.1 4.8 5.1 1.5 0 2.8-.6 4-1.6l6-5.1V10c0 .1.1.3.3.3h2c.2 0 .3-.2.3-.3V.2c0-.2-.1-.3-.2-.3H-.1"
           class="st4"
           id="path8237" />
      </g>
      <g
         transform="matrix(0 1.25 1.25 0 737.132 369.88)"
         id="g8239">
        <path
           d="M-.1-.1C-.1 1-.6 1.7-1.5 2c-.5.2-1.1.2-5 .2s-4.4-.1-5-.2c-.9-.3-1.4-1.1-1.4-2.1 0-1.1.5-1.8 1.4-2.1.5-.2 1.1-.2 5-.2s4.4 0 5 .2c1 .3 1.4 1 1.4 2.1m-6.3-5.3c-4 0-4.8.1-5.5.3-2.1.7-3.4 2.4-3.4 5s1.2 4.3 3.4 5c.7.2 1.5.4 5.5.4s4.8-.1 5.5-.4c2.2-.7 3.4-2.4 3.4-5s-1.2-4.3-3.4-5c-.7-.2-1.5-.3-5.5-.3"
           class="st4"
           id="path8241" />
      </g>
      <g
         transform="matrix(0 1.25 1.25 0 661.525 350.867)"
         id="g8243">
        <path
           d="M-.1-.1c0-5 4-9 8.9-9s8.9 4 8.9 9-4 9-8.9 9-8.9-4-8.9-9"
           class="st7"
           id="path8245" />
      </g>
    </g>
  </g>
</svg>
