<svg xmlns="http://www.w3.org/2000/svg" xmlns:xlink="http://www.w3.org/1999/xlink" preserveAspectRatio="xMidYMid" width="137" height="137" viewBox="0 0 137 137">
  <defs>
    <style>

      .cls-3 {
        fill: #ffffff;
      }

      .cls-4 {
        fill: #f89019;
      }

      .cls-5 {
        fill: #d2d2d2;
      }
    </style>
  </defs>
  <g id="detenersvg">
    <circle id="circle-1" class="cls-3" cx="69" cy="69" r="69"/>
    <circle id="circle-2" class="cls-4" cx="69" cy="69" r="65"/>
    <path d="M43.000,33.041 C43.000,33.041 94.000,33.041 94.000,33.041 C99.523,33.041 104.000,37.518 104.000,43.041 C104.000,43.041 104.000,94.000 104.000,94.000 C104.000,99.523 99.523,104.000 94.000,104.000 C94.000,104.000 43.000,104.000 43.000,104.000 C37.477,104.000 33.000,99.523 33.000,94.000 C33.000,94.000 33.000,43.041 33.000,43.041 C33.000,37.518 37.477,33.041 43.000,33.041 Z" id="path-1" class="cls-5" fill-rule="evenodd"/>
    <path d="M43.000,30.000 C43.000,30.000 94.000,30.000 94.000,30.000 C99.523,30.000 104.000,34.477 104.000,40.000 C104.000,40.000 104.000,90.959 104.000,90.959 C104.000,96.482 99.523,100.959 94.000,100.959 C94.000,100.959 43.000,100.959 43.000,100.959 C37.477,100.959 33.000,96.482 33.000,90.959 C33.000,90.959 33.000,40.000 33.000,40.000 C33.000,34.477 37.477,30.000 43.000,30.000 Z" id="path-2" class="cls-3" fill-rule="evenodd"/>
  </g>
</svg>
