<svg 
 xmlns="http://www.w3.org/2000/svg"
 xmlns:xlink="http://www.w3.org/1999/xlink"
 width="70px" height="52px">
<path fill-rule="evenodd"  fill="rgb(255, 255, 255)"
 d="M-0.000,52.000 C-0.000,52.000 -0.000,50.483 -0.000,50.483 C-0.000,50.483 70.000,50.483 70.000,50.483 C70.000,50.483 70.000,52.000 70.000,52.000 C70.000,52.000 -0.000,52.000 -0.000,52.000 ZM49.126,12.389 C49.126,12.389 58.756,12.389 58.756,12.389 C58.756,12.389 58.756,49.530 58.756,49.530 C58.756,49.530 49.126,49.530 49.126,49.530 C49.126,49.530 49.126,12.389 49.126,12.389 ZM35.674,-0.000 C35.674,-0.000 45.291,-0.000 45.291,-0.000 C45.291,-0.000 45.291,49.530 45.291,49.530 C45.291,49.530 35.674,49.530 35.674,49.530 C35.674,49.530 35.674,-0.000 35.674,-0.000 ZM22.209,24.765 C22.209,24.765 31.839,24.765 31.839,24.765 C31.839,24.765 31.839,49.530 31.839,49.530 C31.839,49.530 22.209,49.530 22.209,49.530 C22.209,49.530 22.209,24.765 22.209,24.765 ZM8.750,37.154 C8.750,37.154 18.374,37.154 18.374,37.154 C18.374,37.154 18.374,49.530 18.374,49.530 C18.374,49.530 8.750,49.530 8.750,49.530 C8.750,49.530 8.750,37.154 8.750,37.154 Z"/>
</svg>