<svg 
 xmlns="http://www.w3.org/2000/svg"
 xmlns:xlink="http://www.w3.org/1999/xlink"
 width="54px" height="54px">
<path fill-rule="evenodd"  fill="rgb(252, 251, 249)"
 d="M27.000,54.000 C12.088,54.000 -0.000,41.912 -0.000,27.000 C-0.000,12.088 12.088,0.000 27.000,0.000 C41.912,0.000 54.000,12.088 54.000,27.000 C54.000,41.912 41.912,54.000 27.000,54.000 ZM9.000,30.256 C9.000,30.256 18.263,30.256 18.263,30.256 C18.263,30.256 18.263,34.442 18.263,34.442 C18.263,34.442 25.842,26.907 25.842,26.907 C25.842,26.907 18.263,18.535 18.263,18.535 C18.263,18.535 18.263,22.721 18.263,22.721 C18.263,22.721 9.000,22.721 9.000,22.721 C9.000,22.721 9.000,30.256 9.000,30.256 ZM41.000,11.000 C41.000,11.000 14.053,11.000 14.053,11.000 C14.053,11.000 14.053,20.209 14.053,20.209 C14.053,20.209 16.579,20.209 16.579,20.209 C16.579,20.209 16.579,13.512 16.579,13.512 C16.579,13.512 35.947,13.512 35.947,13.512 C35.947,13.512 27.526,17.750 27.526,17.750 C27.526,17.750 27.526,37.791 27.526,37.791 C27.526,37.791 16.579,37.791 16.579,37.791 C16.579,37.791 16.579,33.605 16.579,33.605 C16.579,33.605 14.053,33.605 14.053,33.605 C14.053,33.605 14.053,40.250 14.053,40.250 C14.053,40.250 27.526,40.302 27.526,40.302 C27.526,40.302 27.526,47.000 27.526,47.000 C27.526,47.000 41.000,40.250 41.000,40.250 C41.000,40.250 41.000,11.000 41.000,11.000 Z"/>
</svg>