<svg 
 xmlns="http://www.w3.org/2000/svg"
 xmlns:xlink="http://www.w3.org/1999/xlink"
 width="54px" height="54px">
<path fill-rule="evenodd"  fill="rgb(252, 251, 249)"
 d="M27.000,54.000 C12.088,54.000 -0.000,41.912 -0.000,27.000 C-0.000,12.088 12.088,0.000 27.000,0.000 C41.912,0.000 54.000,12.088 54.000,27.000 C54.000,41.912 41.912,54.000 27.000,54.000 ZM44.000,25.628 C44.000,25.628 37.897,19.644 37.897,19.644 C37.897,19.644 37.897,10.242 37.897,10.242 C37.897,10.242 33.538,10.242 33.538,10.242 C33.538,10.242 33.538,15.371 33.538,15.371 C33.538,15.371 27.037,8.989 27.037,8.989 C27.037,8.989 10.000,25.628 10.000,25.628 C10.000,25.628 10.000,27.337 10.000,27.337 C10.000,27.337 14.359,27.337 14.359,27.337 C14.359,27.337 14.359,41.013 14.359,41.013 C14.359,41.013 24.820,41.013 24.820,41.013 C24.820,41.013 24.820,31.611 24.820,31.611 C24.820,31.611 29.180,31.611 29.180,31.611 C29.180,31.611 29.180,41.013 29.180,41.013 C29.180,41.013 39.641,41.013 39.641,41.013 C39.641,41.013 39.641,27.337 39.641,27.337 C39.641,27.337 44.000,27.337 44.000,27.337 C44.000,27.337 44.000,25.628 44.000,25.628 Z"/>
</svg>