<svg 
 xmlns="http://www.w3.org/2000/svg"
 xmlns:xlink="http://www.w3.org/1999/xlink"
 width="103px" height="43px">
<path fill-rule="evenodd"  fill="rgb(2, 49, 81)"
 d="M99.259,37.524 C99.259,37.524 77.768,0.926 77.768,0.926 C77.768,0.926 83.283,0.926 83.283,0.926 C83.283,0.926 102.328,32.388 102.328,32.388 C102.328,32.388 99.259,37.524 99.259,37.524 ZM96.468,42.297 C96.468,42.297 70.876,42.307 70.876,42.307 C70.876,42.307 70.876,37.517 70.876,37.517 C70.876,37.517 99.259,37.524 99.259,37.524 C99.259,37.524 96.507,42.183 96.507,42.183 C96.507,42.183 96.468,42.297 96.468,42.297 ZM59.012,32.693 C55.334,38.139 49.229,42.193 42.210,42.257 C42.210,42.257 42.021,42.258 42.021,42.258 C42.021,42.258 26.353,42.258 26.353,42.258 C26.353,42.258 26.353,37.368 26.353,37.368 C26.353,37.368 26.373,17.759 26.373,17.759 C26.373,17.759 31.286,17.759 31.286,17.759 C31.286,17.759 31.286,37.368 31.286,37.368 C31.286,37.368 31.285,37.407 31.285,37.407 C31.285,37.407 42.021,37.407 42.021,37.407 C42.021,37.407 42.133,37.411 42.133,37.411 C50.831,37.350 57.864,30.232 57.864,21.460 C57.864,12.703 50.851,5.593 42.172,5.511 C42.172,5.511 42.021,5.515 42.021,5.515 C42.021,5.515 4.769,5.514 4.769,5.514 C4.769,5.514 4.768,42.304 4.768,42.304 C4.768,42.304 0.017,42.304 0.017,42.304 C0.017,42.304 0.019,0.736 0.019,0.736 C0.019,0.736 42.021,0.733 42.021,0.733 C42.021,0.733 42.210,0.733 42.210,0.733 C52.200,0.824 60.492,7.835 62.284,17.390 C62.284,17.390 72.254,0.926 72.254,0.926 C72.254,0.926 77.768,0.926 77.768,0.926 C77.768,0.926 60.670,29.862 60.670,29.862 C60.670,29.862 59.012,32.693 59.012,32.693 ZM42.096,7.404 C42.096,7.404 42.172,7.370 42.172,7.370 C49.850,7.442 56.051,13.732 56.051,21.479 C56.051,29.238 49.830,35.534 42.133,35.588 C42.133,35.588 42.011,35.582 42.011,35.582 C42.011,35.582 33.309,35.573 33.309,35.573 C33.309,35.573 33.309,17.761 33.309,17.761 C33.309,17.761 38.221,17.761 38.221,17.761 C38.221,17.761 38.221,30.728 38.221,30.728 C38.221,30.728 38.632,30.718 38.632,30.718 C38.632,30.718 42.021,30.718 42.021,30.718 C42.021,30.718 42.209,30.715 42.209,30.715 C47.181,30.614 51.180,26.525 51.180,21.496 C51.180,16.441 47.141,12.335 42.133,12.275 C42.133,12.275 11.394,12.273 11.394,12.273 C11.394,12.273 11.276,12.276 11.276,12.276 C11.276,12.276 11.276,17.660 11.276,17.660 C11.276,17.660 11.280,17.756 11.280,17.756 C11.280,17.756 24.395,17.761 24.395,17.761 C24.395,17.761 24.408,22.707 24.408,22.707 C24.408,22.707 6.578,22.704 6.578,22.704 C6.578,22.704 6.524,22.701 6.524,22.701 C6.524,22.701 6.525,7.408 6.525,7.408 C6.525,7.408 42.096,7.404 42.096,7.404 ZM24.430,24.695 C24.430,24.695 24.430,29.641 24.430,29.641 C24.430,29.641 11.413,29.641 11.413,29.641 C11.413,29.641 11.276,29.715 11.276,29.715 C11.276,29.715 11.276,42.304 11.276,42.304 C11.276,42.304 6.524,42.304 6.524,42.304 C6.524,42.304 6.524,24.694 6.524,24.694 C6.524,24.694 6.711,24.695 6.711,24.695 C6.711,24.695 24.430,24.695 24.430,24.695 ZM95.927,35.601 C95.927,35.601 70.876,35.601 70.876,35.601 C70.876,35.601 70.876,30.861 70.876,30.861 C70.876,30.861 87.139,30.861 87.139,30.861 C87.139,30.861 77.751,15.039 77.751,15.039 C77.751,15.039 62.367,42.307 62.367,42.307 C62.367,42.307 55.716,42.307 55.716,42.307 C55.716,42.307 77.751,5.216 77.751,5.216 C77.751,5.216 95.927,35.601 95.927,35.601 Z"/>
</svg>