<svg 
 xmlns="http://www.w3.org/2000/svg"
 xmlns:xlink="http://www.w3.org/1999/xlink"
 width="199px" height="35px">
<path fill-rule="evenodd"  fill="rgb(99, 82, 162)"
 d="M194.766,8.444 C192.459,8.444 190.531,6.597 190.531,4.287 C190.531,1.931 192.503,0.127 194.766,0.127 C197.052,0.127 199.001,1.931 199.001,4.287 C199.001,6.575 197.096,8.444 194.766,8.444 ZM194.754,0.798 C192.828,0.798 191.216,2.316 191.216,4.275 C191.216,6.212 192.806,7.773 194.754,7.773 C196.726,7.773 198.318,6.178 198.318,4.275 C198.318,2.338 196.704,0.798 194.754,0.798 ZM196.358,5.386 C196.401,5.759 196.470,6.398 196.603,6.618 C196.603,6.618 195.595,6.618 195.595,6.618 C195.572,6.398 195.417,5.210 195.417,5.144 C195.348,4.880 195.259,4.749 194.922,4.749 C194.922,4.749 194.094,4.749 194.094,4.749 C194.094,4.749 194.094,6.618 194.094,6.618 C194.094,6.618 193.174,6.618 193.174,6.618 C193.174,6.618 193.174,1.953 193.174,1.953 C193.174,1.953 194.811,1.953 194.811,1.953 C195.371,1.953 196.470,1.953 196.470,3.185 C196.470,4.043 195.908,4.219 195.572,4.330 C196.223,4.374 196.268,4.793 196.358,5.386 ZM194.833,2.701 C194.833,2.701 194.071,2.701 194.071,2.701 C194.071,2.701 194.071,3.999 194.071,3.999 C194.071,3.999 194.811,3.999 194.811,3.999 C195.417,3.999 195.528,3.582 195.528,3.340 C195.528,2.701 195.080,2.701 194.833,2.701 ZM179.289,34.115 C179.289,34.115 174.316,21.852 174.316,21.852 C174.316,21.852 171.829,21.852 171.829,21.852 C171.829,21.852 171.829,33.585 171.829,33.585 C171.829,33.585 162.314,33.585 162.314,33.585 C162.314,33.585 162.314,2.578 162.314,2.578 C162.314,2.578 176.372,2.578 176.372,2.578 C180.045,2.578 182.875,3.322 184.859,4.809 C186.840,6.260 187.831,8.278 187.831,10.862 C187.831,15.108 186.066,18.100 182.535,19.834 C182.535,19.834 189.507,33.107 189.507,33.107 C189.507,33.107 179.289,34.115 179.289,34.115 ZM174.370,8.365 C174.370,8.365 171.829,8.365 171.829,8.365 C171.829,8.365 171.829,16.011 171.829,16.011 C171.829,16.011 174.531,16.011 174.531,16.011 C175.685,16.011 176.622,15.586 177.343,14.737 C177.991,13.994 178.316,13.145 178.316,12.188 C178.316,9.640 177.002,8.365 174.370,8.365 ZM146.128,34.116 C141.368,34.116 137.549,32.543 134.666,29.392 C131.854,26.347 130.450,22.454 130.450,17.711 C130.450,13.357 131.945,9.660 134.935,6.615 C137.928,3.570 141.658,2.049 146.128,2.049 C150.632,2.049 154.362,3.570 157.318,6.615 C160.309,9.660 161.805,13.357 161.805,17.711 C161.805,22.454 160.400,26.347 157.587,29.392 C154.704,32.543 150.883,34.116 146.128,34.116 ZM146.128,8.527 C142.271,8.527 140.341,11.588 140.341,17.711 C140.341,24.330 142.271,27.638 146.128,27.638 C149.983,27.638 151.910,24.330 151.910,17.711 C151.910,11.588 149.983,8.527 146.128,8.527 ZM123.455,8.579 C120.932,8.579 118.825,9.339 117.132,10.862 C115.219,12.595 114.264,15.038 114.264,18.188 C114.264,21.302 115.257,23.710 117.238,25.409 C118.968,26.931 121.185,27.692 123.888,27.692 C125.545,27.692 127.329,27.462 129.240,27.001 C129.240,27.001 131.078,32.788 131.078,32.788 C128.663,33.708 126.140,34.168 123.510,34.168 C118.068,34.168 113.562,32.717 109.995,29.814 C106.246,26.771 104.371,22.772 104.371,17.815 C104.371,13.145 106.102,9.357 109.562,6.455 C113.059,3.552 117.525,2.101 122.969,2.101 C125.924,2.101 128.610,2.614 131.024,3.641 C131.024,3.641 128.646,9.162 128.646,9.162 C127.348,8.772 125.619,8.579 123.455,8.579 ZM91.592,26.206 C91.592,26.206 81.807,26.206 81.807,26.206 C81.807,26.206 78.831,33.585 78.831,33.585 C78.831,33.585 71.372,33.585 71.372,33.585 C71.372,33.585 84.237,2.578 84.237,2.578 C84.237,2.578 92.186,2.578 92.186,2.578 C92.186,2.578 104.188,33.585 104.188,33.585 C104.188,33.585 94.077,33.585 94.077,33.585 C94.077,33.585 91.592,26.206 91.592,26.206 ZM86.995,10.225 C86.995,10.225 86.942,10.225 86.942,10.225 C86.689,11.109 85.518,14.791 83.428,21.268 C83.428,21.268 90.077,21.268 90.077,21.268 C89.428,19.073 88.401,15.393 86.995,10.225 ZM60.646,11.870 C60.646,11.870 60.538,11.870 60.538,11.870 C58.881,17.429 56.393,24.666 53.077,33.585 C53.077,33.585 47.075,33.585 47.075,33.585 C43.687,24.666 41.147,17.429 39.454,11.870 C39.454,11.870 39.346,11.870 39.346,11.870 C39.346,11.870 39.346,33.585 39.346,33.585 C39.346,33.585 31.884,33.585 31.884,33.585 C31.884,33.585 31.884,2.578 31.884,2.578 C31.884,2.578 44.913,2.578 44.913,2.578 C46.392,6.650 47.472,9.658 48.157,11.605 C49.347,15.108 50.410,18.454 51.348,21.640 C51.348,21.640 51.454,21.640 51.454,21.640 C53.005,16.047 55.024,9.693 57.509,2.578 C57.509,2.578 70.160,2.578 70.160,2.578 C70.160,2.578 70.160,33.585 70.160,33.585 C70.160,33.585 60.646,33.585 60.646,33.585 C60.646,33.585 60.646,11.870 60.646,11.870 ZM15.700,34.116 C10.942,34.116 7.121,32.543 4.239,29.392 C1.427,26.347 0.022,22.454 0.022,17.711 C0.022,13.357 1.518,9.660 4.509,6.615 C7.500,3.570 11.232,2.049 15.700,2.049 C20.206,2.049 23.936,3.570 26.892,6.615 C29.883,9.660 31.377,13.357 31.377,17.711 C31.377,22.454 29.972,26.347 27.161,29.392 C24.276,32.543 20.457,34.116 15.700,34.116 ZM15.700,8.527 C11.843,8.527 9.915,11.588 9.915,17.711 C9.915,24.330 11.843,27.638 15.700,27.638 C19.557,27.638 21.484,24.330 21.484,17.711 C21.484,11.588 19.557,8.527 15.700,8.527 Z"/>
</svg>