<?xml version="1.0" encoding="utf-8"?>
<!-- Generator: Adobe Illustrator 22.1.0, SVG Export Plug-In . SVG Version: 6.00 Build 0)  -->
<svg version="1.1" id="Capa_1" xmlns="http://www.w3.org/2000/svg" xmlns:xlink="http://www.w3.org/1999/xlink" x="0px" y="0px"
	 viewBox="0 0 87 25" style="enable-background:new 0 0 87 25;" xml:space="preserve">
<style type="text/css">
	.st0{fill:#FFFFFF;}
</style>
<g>
	<path class="st0" d="M77.2,15.8c0-3.8-2.6-6.5-6.2-6.5c-3.6,0-6.6,3-6.6,6.6c0,1.9,0.7,3.7,1.9,5c1.2,1.3,3,2,4.9,2
		c3.1,0,4.5-1.4,5.4-2.3l0.1-0.1l-1.8-2l-0.2,0.2c-0.8,0.6-1.6,1.3-3.3,1.3c-3,0-3.6-2.1-3.7-2.6v0l0,0h9.4V15.8z M67.7,14.6
		L67.7,14.6c0.4-1.2,1.5-2.6,3.4-2.6c1.6,0,2.8,1,3,2.5l0,0.1H67.7z"/>
	<path class="st0" d="M46.1,15.8c0-3.8-2.6-6.5-6.2-6.5c-3.6,0-6.5,3-6.5,6.6c0,1.9,0.7,3.7,1.9,5c1.2,1.3,3,2,4.9,2
		c3.1,0,4.5-1.4,5.4-2.3l0.1-0.1l-1.8-2l-0.2,0.2c-0.8,0.6-1.6,1.3-3.3,1.3c-3,0-3.6-2.1-3.7-2.6l0,0h9.4V15.8z M36.3,14.6
		L36.3,14.6c0.2-0.6,1-2.6,3.5-2.6c1.6,0,2.7,0.9,2.9,2.5v0l0,0.1H36.3z"/>
	<path class="st0" d="M78.8,22.6v-7.5c0-3.5,2.1-5.7,5.4-5.7c1.4,0,2.6,0.4,2.6,0.4L87,9.8l-0.8,2.8L86,12.5c0,0-0.6-0.3-1.4-0.3
		c-1.7,0-2.6,1-2.6,2.9v7.4H78.8z"/>
	<path class="st0" d="M56.6,22.6v-7.5c0-3.5,2.1-5.7,5.4-5.7c1.4,0,2.6,0.4,2.6,0.4l0.2,0.1L64,12.6l-0.2-0.1c0,0-0.6-0.3-1.4-0.3
		c-1.7,0-2.6,1-2.6,2.9v7.4H56.6z"/>
	<path class="st0" d="M48.1,22.6v-7.5c0-3.5,2-5.7,5.3-5.7c1.4,0,2.4,0.4,2.4,0.4L56,9.7l-0.8,2.7L55,12.4c0,0-0.4-0.2-1.1-0.2
		c-1.7,0-2.7,1-2.7,2.9v7.4H48.1z"/>
	<path class="st0" d="M26.1,22.6V8c0-1.8,0.5-3.3,1.4-4.3c0.9-1.1,2.3-1.6,3.9-1.6c1.5,0,2.6,0.4,2.7,0.4l0.2,0.1l-0.8,2.7l-0.2-0.1
		c0,0-0.7-0.2-1.5-0.2c-2.2,0-2.5,1.9-2.5,3.1v1.6h2.9v3h-2.9v9.9H26.1z"/>
	<g>
		<path class="st0" d="M6.6,10c0-7.3,4.1-7.9,4.1-7.9S0.1,0.7,0.1,10.7c0,10.1,0,11.9,0,11.9h6.5V10z"/>
	</g>
	<path class="st0" d="M19.5,9.5c0,0.7,0,1.2,0,1.2v4.7c0,2.7-2.1,5.4-4.8,6.5c-2.5,0.9-4.8,0.7-4.8,0.7v-8.6h3.5v-3.2H9.8V9.5
		c0-4.1,1.7-4.2,3.3-4.2h3.1C17.8,5.3,19.5,5.4,19.5,9.5z"/>
</g>
</svg>
