<svg 
 xmlns="http://www.w3.org/2000/svg"
 xmlns:xlink="http://www.w3.org/1999/xlink"
 width="356px" height="143px">
<defs>
<filter id="Filter_0">
  <feFlood flood-color="rgb(255, 255, 255)" flood-opacity="1" result="floodOut" />
  <feComposite operator="atop" in="floodOut" in2="SourceGraphic" result="compOut" />
  <feBlend mode="normal" in="compOut" in2="SourceGraphic" />
</filter>

</defs>
<g filter="url(#Filter_0)">
<path fill-rule="evenodd"  fill="rgb(2, 49, 81)"
 d="M345.321,126.549 C345.321,126.549 270.543,0.655 270.543,0.655 C270.543,0.655 289.731,0.655 289.731,0.655 C289.731,0.655 356.001,108.878 356.001,108.878 C356.001,108.878 345.321,126.549 345.321,126.549 ZM335.611,142.967 C335.611,142.967 246.560,143.002 246.560,143.002 C246.560,143.002 246.560,126.523 246.560,126.523 C246.560,126.523 345.321,126.549 345.321,126.549 C345.321,126.549 335.745,142.576 335.745,142.576 C335.745,142.576 335.611,142.967 335.611,142.967 ZM205.279,109.931 C192.482,128.662 171.237,142.609 146.815,142.829 C146.815,142.829 146.155,142.833 146.155,142.833 C146.155,142.833 91.639,142.833 91.639,142.833 C91.639,142.833 91.639,126.013 91.639,126.013 C91.639,126.013 91.709,58.559 91.709,58.559 C91.709,58.559 108.803,58.559 108.803,58.559 C108.803,58.559 108.803,126.013 108.803,126.013 C108.803,126.013 108.799,126.146 108.799,126.146 C108.799,126.146 146.155,126.146 146.155,126.146 C146.155,126.146 146.548,126.160 146.548,126.160 C176.813,125.948 201.283,101.462 201.283,71.290 C201.283,41.167 176.882,16.707 146.682,16.424 C146.682,16.424 146.155,16.438 146.155,16.438 C146.155,16.438 16.534,16.434 16.534,16.434 C16.534,16.434 16.529,142.992 16.529,142.992 C16.529,142.992 -0.001,142.992 -0.001,142.992 C-0.001,142.992 0.005,-0.001 0.005,-0.001 C0.005,-0.001 146.155,-0.011 146.155,-0.011 C146.155,-0.011 146.815,-0.011 146.815,-0.011 C181.574,0.303 210.427,24.420 216.664,57.288 C216.664,57.288 251.357,0.655 251.357,0.655 C251.357,0.655 270.543,0.655 270.543,0.655 C270.543,0.655 211.049,100.192 211.049,100.192 C211.049,100.192 205.279,109.931 205.279,109.931 ZM146.419,22.935 C146.419,22.935 146.682,22.821 146.682,22.821 C173.398,23.069 194.977,44.706 194.977,71.355 C194.977,98.043 173.329,119.704 146.548,119.887 C146.548,119.887 146.121,119.867 146.121,119.867 C146.121,119.867 115.841,119.837 115.841,119.837 C115.841,119.837 115.841,58.564 115.841,58.564 C115.841,58.564 132.936,58.564 132.936,58.564 C132.936,58.564 132.936,103.171 132.936,103.171 C132.936,103.171 134.363,103.136 134.363,103.136 C134.363,103.136 146.155,103.136 146.155,103.136 C146.155,103.136 146.812,103.125 146.812,103.125 C164.110,102.778 178.026,88.711 178.026,71.414 C178.026,54.023 163.971,39.901 146.548,39.692 C146.548,39.692 39.588,39.687 39.588,39.687 C39.588,39.687 39.175,39.696 39.175,39.696 C39.175,39.696 39.175,58.216 39.175,58.216 C39.175,58.216 39.189,58.548 39.189,58.548 C39.189,58.548 84.826,58.564 84.826,58.564 C84.826,58.564 84.871,75.578 84.871,75.578 C84.871,75.578 22.831,75.569 22.831,75.569 C22.831,75.569 22.642,75.559 22.642,75.559 C22.642,75.559 22.646,22.951 22.646,22.951 C22.646,22.951 146.419,22.935 146.419,22.935 ZM84.946,82.418 C84.946,82.418 84.946,99.432 84.946,99.432 C84.946,99.432 39.652,99.432 39.652,99.432 C39.652,99.432 39.175,99.685 39.175,99.685 C39.175,99.685 39.175,142.992 39.175,142.992 C39.175,142.992 22.642,142.992 22.642,142.992 C22.642,142.992 22.642,82.414 22.642,82.414 C22.642,82.414 23.292,82.418 23.292,82.418 C23.292,82.418 84.946,82.418 84.946,82.418 ZM333.728,119.931 C333.728,119.931 246.560,119.931 246.560,119.931 C246.560,119.931 246.560,103.626 246.560,103.626 C246.560,103.626 303.149,103.626 303.149,103.626 C303.149,103.626 270.485,49.202 270.485,49.202 C270.485,49.202 216.952,143.002 216.952,143.002 C216.952,143.002 193.809,143.002 193.809,143.002 C193.809,143.002 270.485,15.411 270.485,15.411 C270.485,15.411 333.728,119.931 333.728,119.931 Z"/>
</g>
</svg>