<svg xmlns="http://www.w3.org/2000/svg" xmlns:xlink="http://www.w3.org/1999/xlink" preserveAspectRatio="xMidYMid" width="138" height="137" viewBox="0 0 138 137">
  <defs>
    <style>

      .cls-3 {
        fill: #ffffff;
      }

      .cls-4 {
        fill: #f89019;
      }

      .cls-5 {
        fill: #d2d2d2;
      }
    </style>
  </defs>
  <g id="personasvg">
    <circle id="circle-1" class="cls-3" cx="69" cy="69" r="69"/>
    <circle id="circle-2" class="cls-4" cx="69" cy="69" r="65"/>
    <path d="M104.195,112.000 C104.195,112.000 35.805,112.000 35.805,112.000 C34.808,112.000 34.000,111.198 34.000,110.208 C34.000,110.208 34.000,29.584 34.000,29.584 C34.000,28.594 34.808,27.792 35.805,27.792 C35.805,27.792 87.173,27.792 87.173,27.792 C87.651,27.792 88.111,27.980 88.449,28.316 C88.449,28.316 105.471,45.211 105.471,45.211 C105.810,45.547 106.000,46.003 106.000,46.478 C106.000,46.478 106.000,110.208 106.000,110.208 C106.000,111.198 105.192,112.000 104.195,112.000 ZM88.978,33.909 C88.978,33.909 88.978,44.686 88.978,44.686 C88.978,44.686 99.836,44.686 99.836,44.686 C99.836,44.686 88.978,33.909 88.978,33.909 ZM102.389,48.270 C102.389,48.270 87.173,48.270 87.173,48.270 C86.176,48.270 85.367,47.468 85.367,46.478 C85.367,46.478 85.367,31.375 85.367,31.375 C85.367,31.375 37.610,31.375 37.610,31.375 C37.610,31.375 37.610,108.416 37.610,108.416 C37.610,108.416 102.389,108.416 102.389,108.416 C102.389,108.416 102.389,48.270 102.389,48.270 ZM46.249,57.449 C46.564,56.471 47.612,55.705 48.636,55.705 C48.636,55.705 49.515,55.705 49.515,55.705 C49.515,55.705 50.143,55.705 50.143,55.705 C50.143,55.705 60.156,55.705 60.156,55.705 C60.156,55.705 60.784,55.705 60.784,55.705 C60.784,55.705 61.662,55.705 61.662,55.705 C62.687,55.705 63.735,56.471 64.050,57.449 C64.050,57.449 69.927,75.721 69.927,75.721 C70.101,76.263 70.030,76.811 69.729,77.226 C69.428,77.640 68.930,77.878 68.363,77.878 C68.363,77.878 66.856,77.878 66.856,77.878 C65.832,77.878 64.783,77.112 64.468,76.134 C64.468,76.134 62.793,70.925 62.793,70.925 C62.793,70.925 62.793,77.959 62.793,77.959 C62.793,77.959 62.793,78.297 62.793,78.297 C62.793,78.297 62.793,97.891 62.793,97.891 C62.793,99.743 61.291,101.250 59.445,101.250 C59.445,101.250 59.210,101.250 59.210,101.250 C57.364,101.250 55.862,99.743 55.862,97.891 C55.862,97.891 55.862,80.312 55.862,80.312 C55.862,80.312 54.438,80.312 54.438,80.312 C54.438,80.312 54.438,97.891 54.438,97.891 C54.438,99.743 52.936,101.250 51.090,101.250 C51.090,101.250 50.854,101.250 50.854,101.250 C49.008,101.250 47.506,99.743 47.506,97.891 C47.506,97.891 47.506,78.297 47.506,78.297 C47.506,78.297 47.506,77.959 47.506,77.959 C47.506,77.959 47.506,70.928 47.506,70.928 C47.506,70.928 45.832,76.134 45.832,76.134 C45.518,77.112 44.469,77.878 43.445,77.878 C43.445,77.878 41.938,77.878 41.938,77.878 C41.370,77.878 40.872,77.640 40.572,77.226 C40.271,76.811 40.199,76.263 40.373,75.721 C40.373,75.721 46.249,57.449 46.249,57.449 ZM72.351,44.807 C72.351,44.807 81.711,44.807 81.711,44.807 C82.514,44.807 83.165,45.605 83.165,46.589 C83.165,47.574 82.514,48.372 81.711,48.372 C81.711,48.372 72.351,48.372 72.351,48.372 C71.549,48.372 70.898,47.574 70.898,46.589 C70.898,45.605 71.549,44.807 72.351,44.807 ZM72.351,52.274 C72.351,52.274 84.823,52.274 84.823,52.274 C85.626,52.274 86.276,53.072 86.276,54.056 C86.276,55.041 85.626,55.839 84.823,55.839 C84.823,55.839 72.351,55.839 72.351,55.839 C71.549,55.839 70.898,55.041 70.898,54.056 C70.898,53.072 71.549,52.274 72.351,52.274 ZM72.351,66.678 C72.351,66.678 92.222,66.678 92.222,66.678 C93.025,66.678 93.675,67.476 93.675,68.460 C93.675,69.445 93.025,70.243 92.222,70.243 C92.222,70.243 72.351,70.243 72.351,70.243 C71.549,70.243 70.898,69.445 70.898,68.460 C70.898,67.476 71.549,66.678 72.351,66.678 ZM72.351,73.471 C72.351,73.471 85.574,73.471 85.574,73.471 C86.377,73.471 87.027,74.269 87.027,75.254 C87.027,76.239 86.377,77.036 85.574,77.036 C85.574,77.036 72.351,77.036 72.351,77.036 C71.549,77.036 70.898,76.239 70.898,75.254 C70.898,74.269 71.549,73.471 72.351,73.471 ZM72.351,89.103 C72.351,89.103 94.651,89.103 94.651,89.103 C95.454,89.103 96.105,89.901 96.105,90.886 C96.105,91.870 95.454,92.668 94.651,92.668 C94.651,92.668 72.351,92.668 72.351,92.668 C71.549,92.668 70.898,91.870 70.898,90.886 C70.898,89.901 71.549,89.103 72.351,89.103 ZM72.351,95.896 C72.351,95.896 91.071,95.896 91.071,95.896 C91.874,95.896 92.525,96.694 92.525,97.679 C92.525,98.664 91.874,99.462 91.071,99.462 C91.071,99.462 72.351,99.462 72.351,99.462 C71.549,99.462 70.898,98.664 70.898,97.679 C70.898,96.694 71.549,95.896 72.351,95.896 ZM55.150,53.997 C51.149,53.997 47.895,50.731 47.895,46.717 C47.895,42.703 51.149,39.438 55.150,39.438 C59.151,39.438 62.405,42.703 62.405,46.717 C62.405,50.731 59.151,53.997 55.150,53.997 Z" id="path-1" class="cls-5" fill-rule="evenodd"/>
    <path d="M104.195,110.208 C104.195,110.208 35.805,110.208 35.805,110.208 C34.808,110.208 34.000,109.406 34.000,108.416 C34.000,108.416 34.000,27.792 34.000,27.792 C34.000,26.802 34.808,26.000 35.805,26.000 C35.805,26.000 87.173,26.000 87.173,26.000 C87.651,26.000 88.111,26.189 88.449,26.525 C88.449,26.525 105.471,43.419 105.471,43.419 C105.810,43.755 106.000,44.211 106.000,44.686 C106.000,44.686 106.000,108.416 106.000,108.416 C106.000,109.406 105.192,110.208 104.195,110.208 ZM88.978,32.118 C88.978,32.118 88.978,42.894 88.978,42.894 C88.978,42.894 99.836,42.894 99.836,42.894 C99.836,42.894 88.978,32.118 88.978,32.118 ZM102.389,46.478 C102.389,46.478 87.173,46.478 87.173,46.478 C86.176,46.478 85.367,45.676 85.367,44.686 C85.367,44.686 85.367,29.584 85.367,29.584 C85.367,29.584 37.610,29.584 37.610,29.584 C37.610,29.584 37.610,106.625 37.610,106.625 C37.610,106.625 102.389,106.625 102.389,106.625 C102.389,106.625 102.389,46.478 102.389,46.478 ZM46.249,55.657 C46.564,54.679 47.612,53.913 48.636,53.913 C48.636,53.913 49.515,53.913 49.515,53.913 C49.515,53.913 50.143,53.913 50.143,53.913 C50.143,53.913 60.156,53.913 60.156,53.913 C60.156,53.913 60.784,53.913 60.784,53.913 C60.784,53.913 61.662,53.913 61.662,53.913 C62.687,53.913 63.735,54.679 64.050,55.657 C64.050,55.657 69.927,73.929 69.927,73.929 C70.101,74.471 70.030,75.020 69.729,75.434 C69.428,75.849 68.930,76.087 68.363,76.087 C68.363,76.087 66.856,76.087 66.856,76.087 C65.832,76.087 64.783,75.321 64.468,74.342 C64.468,74.342 62.793,69.133 62.793,69.133 C62.793,69.133 62.793,76.167 62.793,76.167 C62.793,76.167 62.793,76.505 62.793,76.505 C62.793,76.505 62.793,96.099 62.793,96.099 C62.793,97.951 61.291,99.458 59.445,99.458 C59.445,99.458 59.210,99.458 59.210,99.458 C57.364,99.458 55.862,97.951 55.862,96.099 C55.862,96.099 55.862,78.520 55.862,78.520 C55.862,78.520 54.438,78.520 54.438,78.520 C54.438,78.520 54.438,96.099 54.438,96.099 C54.438,97.951 52.936,99.458 51.090,99.458 C51.090,99.458 50.854,99.458 50.854,99.458 C49.008,99.458 47.506,97.951 47.506,96.099 C47.506,96.099 47.506,76.505 47.506,76.505 C47.506,76.505 47.506,76.167 47.506,76.167 C47.506,76.167 47.506,69.136 47.506,69.136 C47.506,69.136 45.832,74.342 45.832,74.342 C45.518,75.321 44.469,76.087 43.445,76.087 C43.445,76.087 41.938,76.087 41.938,76.087 C41.370,76.087 40.872,75.849 40.572,75.434 C40.271,75.020 40.199,74.471 40.373,73.929 C40.373,73.929 46.249,55.657 46.249,55.657 ZM72.351,43.015 C72.351,43.015 81.711,43.015 81.711,43.015 C82.514,43.015 83.165,43.813 83.165,44.798 C83.165,45.783 82.514,46.580 81.711,46.580 C81.711,46.580 72.351,46.580 72.351,46.580 C71.549,46.580 70.898,45.783 70.898,44.798 C70.898,43.813 71.549,43.015 72.351,43.015 ZM72.351,50.482 C72.351,50.482 84.823,50.482 84.823,50.482 C85.626,50.482 86.276,51.280 86.276,52.265 C86.276,53.249 85.626,54.047 84.823,54.047 C84.823,54.047 72.351,54.047 72.351,54.047 C71.549,54.047 70.898,53.250 70.898,52.265 C70.898,51.280 71.549,50.482 72.351,50.482 ZM72.351,64.886 C72.351,64.886 92.222,64.886 92.222,64.886 C93.025,64.886 93.675,65.684 93.675,66.669 C93.675,67.653 93.025,68.452 92.222,68.452 C92.222,68.452 72.351,68.452 72.351,68.452 C71.549,68.452 70.898,67.654 70.898,66.669 C70.898,65.684 71.549,64.886 72.351,64.886 ZM72.351,71.679 C72.351,71.679 85.574,71.679 85.574,71.679 C86.377,71.679 87.027,72.477 87.027,73.462 C87.027,74.447 86.377,75.245 85.574,75.245 C85.574,75.245 72.351,75.245 72.351,75.245 C71.549,75.245 70.898,74.447 70.898,73.462 C70.898,72.477 71.549,71.679 72.351,71.679 ZM72.351,87.311 C72.351,87.311 94.651,87.311 94.651,87.311 C95.454,87.311 96.105,88.109 96.105,89.094 C96.105,90.079 95.454,90.877 94.651,90.877 C94.651,90.877 72.351,90.877 72.351,90.877 C71.549,90.877 70.898,90.079 70.898,89.094 C70.898,88.109 71.549,87.311 72.351,87.311 ZM72.351,94.105 C72.351,94.105 91.071,94.105 91.071,94.105 C91.874,94.105 92.525,94.903 92.525,95.887 C92.525,96.872 91.874,97.670 91.071,97.670 C91.071,97.670 72.351,97.670 72.351,97.670 C71.549,97.670 70.898,96.872 70.898,95.887 C70.898,94.903 71.549,94.105 72.351,94.105 ZM55.150,52.205 C51.149,52.205 47.895,48.940 47.895,44.926 C47.895,40.912 51.149,37.646 55.150,37.646 C59.151,37.646 62.405,40.912 62.405,44.926 C62.405,48.940 59.151,52.205 55.150,52.205 Z" id="path-2" class="cls-3" fill-rule="evenodd"/>
  </g>
</svg>
