<svg xmlns="http://www.w3.org/2000/svg" xmlns:xlink="http://www.w3.org/1999/xlink" preserveAspectRatio="xMidYMid" width="138" height="137" viewBox="0 0 138 137">
  <defs>
    <style>

      .cls-3 {
        fill: #ffffff;
      }

      .cls-4 {
        fill: #f89019;
      }

      .cls-5 {
        fill: #d2d2d2;
      }
    </style>
  </defs>
  <g id="playsvg">
    <circle id="circle-1" class="cls-3" cx="69" cy="69" r="69"/>
    <circle id="circle-2" class="cls-4" cx="69" cy="69" r="65"/>
    <path d="M105.501,73.229 C105.501,73.229 53.517,104.708 53.517,104.708 C52.420,105.510 51.077,106.000 49.609,106.000 C46.007,106.000 43.090,103.141 43.014,99.591 C43.014,99.591 43.000,99.583 43.000,99.583 C43.000,99.583 43.000,35.542 43.000,35.542 C43.000,35.542 43.000,35.542 43.000,35.542 C43.003,31.929 45.961,29.000 49.609,29.000 C51.122,29.000 52.499,29.523 53.613,30.370 C53.613,30.370 105.694,61.838 105.694,61.838 C105.694,61.838 105.694,61.874 105.694,61.874 C107.662,63.005 109.000,65.088 109.000,67.500 C109.000,69.989 107.574,72.127 105.501,73.229 Z" id="path-1" class="cls-5" fill-rule="evenodd"/>
    <path d="M105.501,70.229 C105.501,70.229 53.517,101.708 53.517,101.708 C52.420,102.510 51.077,103.000 49.609,103.000 C46.007,103.000 43.090,100.141 43.014,96.591 C43.014,96.591 43.000,96.583 43.000,96.583 C43.000,96.583 43.000,32.542 43.000,32.542 C43.000,32.542 43.000,32.542 43.000,32.542 C43.003,28.929 45.961,26.000 49.609,26.000 C51.122,26.000 52.499,26.523 53.613,27.370 C53.613,27.370 105.694,58.838 105.694,58.838 C105.694,58.838 105.694,58.874 105.694,58.874 C107.662,60.005 109.000,62.088 109.000,64.500 C109.000,66.989 107.574,69.127 105.501,70.229 Z" id="path-2" class="cls-3" fill-rule="evenodd"/>
  </g>
</svg>
