<svg 
 xmlns="http://www.w3.org/2000/svg"
 xmlns:xlink="http://www.w3.org/1999/xlink"
 width="79px" height="58px">
<path fill-rule="evenodd"  fill="rgb(255, 255, 255)"
 d="M78.365,50.704 C79.241,52.342 79.192,54.350 78.235,55.943 C77.279,57.536 75.860,58.000 74.000,58.000 C74.000,58.000 59.000,58.000 59.000,58.000 C57.140,58.000 55.246,57.536 54.289,55.943 C53.333,54.350 53.283,52.342 54.160,50.704 C54.160,50.704 60.876,38.150 60.876,38.150 C60.876,38.150 60.876,27.306 60.876,27.306 C60.876,27.306 59.196,27.306 59.196,27.306 C59.196,27.306 59.196,27.304 59.196,27.304 C58.060,27.276 57.148,26.348 57.148,25.207 C57.148,24.066 58.060,23.138 59.196,23.109 C59.196,23.109 59.196,23.108 59.196,23.108 C59.196,23.108 73.275,23.108 73.275,23.108 C74.436,23.108 75.377,24.048 75.377,25.207 C75.377,26.366 74.436,27.306 73.275,27.306 C73.275,27.306 71.648,27.306 71.648,27.306 C71.648,27.306 71.648,38.150 71.648,38.150 C71.648,38.150 78.365,50.704 78.365,50.704 ZM70.200,38.512 C70.200,38.512 70.200,27.306 70.200,27.306 C70.200,27.306 62.324,27.306 62.324,27.306 C62.324,27.306 62.324,38.512 62.324,38.512 C62.324,38.512 55.437,51.386 55.437,51.386 C54.799,52.578 54.835,54.039 55.531,55.200 C56.227,56.360 57.501,57.080 58.856,57.080 C58.856,57.080 73.669,57.080 73.669,57.080 C75.023,57.080 76.297,56.359 76.994,55.200 C77.690,54.040 77.726,52.578 77.088,51.385 C77.088,51.385 70.200,38.512 70.200,38.512 ZM73.669,55.767 C73.669,55.767 58.855,55.767 58.855,55.767 C58.002,55.767 57.211,55.320 56.773,54.589 C56.334,53.858 56.311,52.951 56.714,52.199 C56.714,52.199 61.688,42.901 61.688,42.901 C61.688,42.901 70.837,42.901 70.837,42.901 C70.837,42.901 75.811,52.199 75.811,52.199 C76.213,52.951 76.191,53.858 75.752,54.589 C75.313,55.320 74.522,55.767 73.669,55.767 ZM44.000,58.000 C44.000,58.000 34.000,58.000 34.000,58.000 C32.811,58.000 32.096,57.470 31.485,56.452 C30.873,55.433 30.842,54.150 31.402,53.103 C31.402,53.103 35.695,45.077 35.695,45.077 C35.695,45.077 35.695,38.145 35.695,38.145 C35.695,38.145 34.621,38.145 34.621,38.145 C34.621,38.145 34.621,38.144 34.621,38.144 C33.895,38.126 33.312,37.533 33.312,36.803 C33.312,36.074 33.895,35.481 34.621,35.463 C34.621,35.463 34.621,35.462 34.621,35.462 C34.621,35.462 43.621,35.462 43.621,35.462 C44.363,35.462 44.965,36.062 44.965,36.803 C44.965,37.544 44.363,38.145 43.621,38.145 C43.621,38.145 42.581,38.145 42.581,38.145 C42.581,38.145 42.581,45.077 42.581,45.077 C42.581,45.077 46.875,53.103 46.875,53.103 C47.435,54.150 47.404,55.433 46.792,56.452 C46.181,57.470 45.189,58.000 44.000,58.000 ZM46.059,53.538 C46.059,53.538 41.656,45.309 41.656,45.309 C41.656,45.309 41.656,38.145 41.656,38.145 C41.656,38.145 36.621,38.145 36.621,38.145 C36.621,38.145 36.621,45.309 36.621,45.309 C36.621,45.309 32.218,53.538 32.218,53.538 C31.810,54.301 31.833,55.235 32.278,55.976 C32.724,56.718 33.538,57.178 34.404,57.178 C34.404,57.178 43.873,57.178 43.873,57.178 C44.739,57.178 45.553,56.718 45.998,55.977 C46.444,55.235 46.467,54.301 46.059,53.538 ZM43.873,56.339 C43.873,56.339 34.404,56.339 34.404,56.339 C33.858,56.339 33.353,56.053 33.072,55.586 C32.792,55.119 32.777,54.539 33.034,54.059 C33.034,54.059 36.214,48.115 36.214,48.115 C36.214,48.115 42.062,48.115 42.062,48.115 C42.062,48.115 45.242,54.059 45.242,54.059 C45.499,54.539 45.485,55.119 45.205,55.586 C44.924,56.053 44.419,56.339 43.873,56.339 ZM38.978,32.248 C37.816,32.248 36.874,31.301 36.874,30.134 C36.874,28.967 37.816,25.604 38.978,25.604 C40.140,25.604 41.081,28.967 41.081,30.134 C41.081,31.301 40.140,32.248 38.978,32.248 ZM37.851,23.216 C37.727,23.216 37.603,23.202 37.482,23.176 C37.482,23.176 32.560,22.115 32.560,22.115 C32.226,22.043 31.926,21.878 31.686,21.638 C31.686,21.638 22.357,12.262 22.357,12.262 C22.357,12.262 21.507,13.117 21.507,13.117 C21.155,13.471 20.693,13.648 20.232,13.648 C19.771,13.648 19.309,13.471 18.957,13.117 C18.253,12.410 18.253,11.262 18.957,10.555 C18.957,10.555 18.991,10.520 18.991,10.520 C18.991,10.520 18.330,9.856 18.330,9.856 C17.272,8.792 16.677,7.349 16.677,5.845 C16.677,4.340 17.272,2.898 18.331,1.834 C20.535,-0.382 24.109,-0.381 26.313,1.834 C26.313,1.834 26.974,2.498 26.974,2.498 C26.974,2.498 27.008,2.465 27.008,2.465 C27.712,1.757 28.853,1.757 29.557,2.465 C30.262,3.172 30.262,4.320 29.557,5.027 C29.557,5.027 28.706,5.882 28.706,5.882 C28.706,5.882 38.035,15.257 38.035,15.257 C38.273,15.497 38.438,15.800 38.511,16.134 C38.511,16.134 39.567,21.083 39.567,21.083 C39.691,21.669 39.515,22.274 39.091,22.699 C38.761,23.032 38.320,23.216 37.851,23.216 ZM27.433,7.162 C27.433,7.162 23.632,10.981 23.632,10.981 C23.632,10.981 28.343,15.716 28.343,15.716 C28.343,15.716 35.157,14.918 35.157,14.918 C35.157,14.918 27.433,7.162 27.433,7.162 ZM18.012,30.633 C18.012,31.588 17.237,32.363 16.279,32.363 C16.279,32.363 14.938,32.363 14.938,32.363 C14.938,32.363 14.938,41.305 14.938,41.305 C14.938,41.305 20.476,51.656 20.476,51.656 C21.199,53.007 21.158,54.662 20.369,55.976 C19.581,57.289 18.534,58.000 17.000,58.000 C17.000,58.000 4.000,58.000 4.000,58.000 C2.466,58.000 1.414,57.289 0.625,55.976 C-0.164,54.662 -0.204,53.007 0.518,51.656 C0.518,51.656 6.056,41.305 6.056,41.305 C6.056,41.305 6.056,32.363 6.056,32.363 C6.056,32.363 4.671,32.363 4.671,32.363 C4.671,32.363 4.671,32.362 4.671,32.362 C3.734,32.338 2.982,31.573 2.982,30.633 C2.982,29.692 3.734,28.927 4.671,28.903 C4.671,28.903 4.671,28.902 4.671,28.902 C4.671,28.902 16.279,28.902 16.279,28.902 C17.237,28.902 18.012,29.677 18.012,30.633 ZM13.744,32.363 C13.744,32.363 7.250,32.363 7.250,32.363 C7.250,32.363 7.250,41.603 7.250,41.603 C7.250,41.603 1.571,52.218 1.571,52.218 C1.045,53.201 1.075,54.406 1.649,55.363 C2.223,56.319 3.273,56.913 4.390,56.913 C4.390,56.913 16.604,56.913 16.604,56.913 C17.721,56.913 18.771,56.319 19.346,55.363 C19.920,54.406 19.950,53.201 19.423,52.218 C19.423,52.218 13.744,41.603 13.744,41.603 C13.744,41.603 13.744,32.363 13.744,32.363 ZM16.604,55.831 C16.604,55.831 4.390,55.831 4.390,55.831 C3.686,55.831 3.034,55.462 2.673,54.859 C2.311,54.257 2.292,53.509 2.624,52.889 C2.624,52.889 6.726,45.222 6.726,45.222 C6.726,45.222 14.269,45.222 14.269,45.222 C14.269,45.222 18.370,52.889 18.370,52.889 C18.702,53.509 18.684,54.257 18.322,54.859 C17.960,55.462 17.308,55.831 16.604,55.831 Z"/>
</svg>