<svg 
 xmlns="http://www.w3.org/2000/svg"
 xmlns:xlink="http://www.w3.org/1999/xlink"
 width="68px" height="63px">
<path fill-rule="evenodd"  fill="rgb(252, 251, 249)"
 d="M68.000,63.000 C68.000,63.000 55.000,63.000 55.000,63.000 C55.000,63.000 60.000,58.000 60.000,58.000 C60.000,58.000 52.000,58.000 52.000,58.000 C52.000,58.000 45.872,58.000 45.872,58.000 C45.872,58.000 38.400,58.000 38.400,58.000 C38.400,58.000 29.412,58.000 29.412,58.000 C29.412,58.000 21.122,58.000 21.122,58.000 C21.122,58.000 16.000,58.000 16.000,58.000 C16.000,58.000 8.000,58.000 8.000,58.000 C8.000,58.000 13.000,63.000 13.000,63.000 C13.000,63.000 -0.000,63.000 -0.000,63.000 C-0.000,63.000 3.000,58.000 3.000,58.000 C3.000,58.000 -0.000,52.000 -0.000,52.000 C-0.000,52.000 8.000,52.000 8.000,52.000 C8.000,52.000 8.000,49.422 8.000,49.422 C8.000,49.422 7.883,45.000 7.883,45.000 C7.883,45.000 10.728,45.000 10.728,45.000 C10.728,45.000 13.193,45.000 13.193,45.000 C13.193,45.000 20.722,45.000 20.722,45.000 C20.722,45.000 30.511,45.000 30.511,45.000 C30.511,45.000 32.832,45.000 32.832,45.000 C32.832,45.000 35.168,45.000 35.168,45.000 C35.168,45.000 37.480,45.000 37.480,45.000 C37.480,45.000 47.286,45.000 47.286,45.000 C47.286,45.000 54.807,45.000 54.807,45.000 C54.807,45.000 57.085,45.000 57.085,45.000 C57.085,45.000 59.110,45.000 59.110,45.000 C59.110,45.000 60.000,45.000 60.000,45.000 C60.000,45.000 60.000,52.000 60.000,52.000 C60.000,52.000 68.000,52.000 68.000,52.000 C68.000,52.000 65.000,58.000 65.000,58.000 C65.000,58.000 68.000,63.000 68.000,63.000 ZM35.168,7.643 C38.015,8.501 40.884,12.313 42.722,18.129 C40.287,18.716 37.762,19.060 35.168,19.141 C35.168,19.141 35.168,7.643 35.168,7.643 ZM43.307,43.806 C40.684,43.169 37.964,42.797 35.168,42.715 C35.168,42.715 35.168,33.168 35.168,33.168 C35.168,33.168 44.672,33.168 44.672,33.168 C44.588,37.099 44.096,40.690 43.307,43.806 ZM35.168,21.274 C37.963,21.193 40.684,20.822 43.303,20.184 C44.096,23.304 44.588,26.896 44.672,30.832 C44.672,30.832 35.168,30.832 35.168,30.832 C35.168,30.832 35.168,21.274 35.168,21.274 ZM39.718,8.119 C44.265,9.210 48.325,11.562 51.501,14.792 C49.377,15.924 47.134,16.857 44.792,17.566 C43.544,13.549 41.791,10.272 39.718,8.119 ZM58.524,33.168 C58.339,37.092 57.213,40.766 55.391,44.000 C55.391,44.000 45.453,44.000 45.453,44.000 C46.253,40.717 46.740,37.055 46.822,33.168 C46.822,33.168 58.524,33.168 58.524,33.168 ZM52.972,16.423 C56.229,20.383 58.266,25.377 58.524,30.832 C58.524,30.832 46.822,30.832 46.822,30.832 C46.737,26.798 46.225,22.999 45.371,19.624 C48.034,18.819 50.577,17.741 52.972,16.423 ZM9.476,33.168 C9.476,33.168 21.112,33.168 21.112,33.168 C21.193,37.055 21.681,40.718 22.480,44.000 C22.480,44.000 12.609,44.000 12.609,44.000 C10.787,40.767 9.661,37.093 9.476,33.168 ZM9.476,30.832 C9.732,25.382 11.768,20.388 15.022,16.429 C17.400,17.739 19.923,18.811 22.565,19.612 C21.710,22.990 21.196,26.794 21.112,30.832 C21.112,30.832 9.476,30.832 9.476,30.832 ZM16.499,14.792 C19.655,11.583 23.684,9.237 28.197,8.140 C26.135,10.289 24.391,13.552 23.147,17.548 C20.827,16.840 18.605,15.914 16.499,14.792 ZM32.832,7.617 C32.832,7.617 32.832,19.138 32.832,19.138 C30.216,19.059 27.670,18.709 25.217,18.113 C27.069,12.260 29.967,8.434 32.832,7.617 ZM32.832,42.715 C30.014,42.797 27.272,43.174 24.630,43.821 C23.838,40.701 23.346,37.105 23.261,33.168 C23.261,33.168 32.832,33.168 32.832,33.168 C32.832,33.168 32.832,42.715 32.832,42.715 ZM24.632,20.171 C27.273,20.815 30.014,21.192 32.832,21.274 C32.832,21.274 32.832,30.832 32.832,30.832 C32.832,30.832 23.261,30.832 23.261,30.832 C23.346,26.891 23.839,23.292 24.632,20.171 ZM61.903,35.985 C61.903,35.985 63.452,41.219 63.452,41.219 C63.452,41.219 59.829,44.000 59.829,44.000 C59.829,44.000 57.622,44.000 57.622,44.000 C59.564,40.296 60.688,36.097 60.688,31.625 C60.688,16.834 48.697,4.844 33.906,4.844 C19.115,4.844 7.125,16.834 7.125,31.625 C7.125,36.097 8.249,40.296 10.190,44.000 C10.190,44.000 7.164,44.000 7.164,44.000 C7.164,44.000 3.541,41.219 3.541,41.219 C3.541,41.219 5.090,35.985 5.090,35.985 C5.090,35.985 2.000,31.486 2.000,31.486 C2.000,31.486 5.090,26.987 5.090,26.987 C5.090,26.987 3.541,21.753 3.541,21.753 C3.541,21.753 7.871,18.429 7.871,18.429 C7.871,18.429 8.015,12.972 8.015,12.972 C8.015,12.972 13.160,11.149 13.160,11.149 C13.160,11.149 14.983,6.004 14.983,6.004 C14.983,6.004 20.440,5.860 20.440,5.860 C20.440,5.860 23.764,1.531 23.764,1.531 C23.764,1.531 28.998,3.079 28.998,3.079 C28.998,3.079 33.497,-0.011 33.497,-0.011 C33.497,-0.011 37.996,3.079 37.996,3.079 C37.996,3.079 43.230,1.531 43.230,1.531 C43.230,1.531 46.554,5.860 46.554,5.860 C46.554,5.860 52.010,6.004 52.010,6.004 C52.010,6.004 53.833,11.149 53.833,11.149 C53.833,11.149 58.978,12.972 58.978,12.972 C58.978,12.972 59.122,18.429 59.122,18.429 C59.122,18.429 63.452,21.753 63.452,21.753 C63.452,21.753 61.903,26.987 61.903,26.987 C61.903,26.987 64.993,31.486 64.993,31.486 C64.993,31.486 61.903,35.985 61.903,35.985 ZM45.104,59.000 C45.104,59.000 43.230,61.441 43.230,61.441 C43.230,61.441 37.996,59.892 37.996,59.892 C37.996,59.892 33.497,62.983 33.497,62.983 C33.497,62.983 28.998,59.892 28.998,59.892 C28.998,59.892 23.764,61.441 23.764,61.441 C23.764,61.441 21.890,59.000 21.890,59.000 C21.890,59.000 45.104,59.000 45.104,59.000 Z"/>
</svg>