<svg 
 xmlns="http://www.w3.org/2000/svg"
 xmlns:xlink="http://www.w3.org/1999/xlink"
 width="62px" height="58px">
<path fill-rule="evenodd"  fill="rgb(255, 255, 255)"
 d="M30.964,58.000 C18.597,40.075 0.984,34.254 0.984,16.130 C0.984,7.220 8.162,-0.012 17.006,-0.012 C23.420,-0.012 28.405,1.102 30.964,6.593 C33.520,1.102 39.576,-0.012 45.991,-0.012 C45.991,-0.012 45.994,-0.012 45.994,-0.012 C54.838,-0.012 61.016,7.216 61.016,16.130 C61.016,33.676 42.654,40.187 30.964,58.000 ZM45.029,1.988 C45.029,1.988 45.025,1.988 45.025,1.988 C39.038,1.988 33.385,4.888 31.000,10.000 C28.611,4.888 23.958,1.988 17.971,1.988 C9.716,1.988 3.016,8.722 3.016,17.018 C3.016,33.892 19.456,39.311 31.000,56.000 C41.911,39.416 58.984,33.354 58.984,17.018 C58.984,8.719 53.283,1.988 45.029,1.988 ZM31.000,52.567 C20.532,37.344 5.171,33.309 5.171,17.917 C5.171,10.350 11.247,4.208 18.732,4.208 C24.161,4.208 28.834,8.674 31.000,13.337 C33.163,8.674 37.836,4.208 43.265,4.208 C43.265,4.208 43.268,4.208 43.268,4.208 C50.753,4.208 56.829,10.347 56.829,17.917 C56.829,32.818 40.894,37.439 31.000,52.567 Z"/>
</svg>