<?xml version="1.0" encoding="UTF-8" standalone="no"?>
<svg
   xmlns:dc="http://purl.org/dc/elements/1.1/"
   xmlns:cc="http://creativecommons.org/ns#"
   xmlns:rdf="http://www.w3.org/1999/02/22-rdf-syntax-ns#"
   xmlns:svg="http://www.w3.org/2000/svg"
   xmlns="http://www.w3.org/2000/svg"
   xmlns:sodipodi="http://sodipodi.sourceforge.net/DTD/sodipodi-0.dtd"
   xmlns:inkscape="http://www.inkscape.org/namespaces/inkscape"
   inkscape:version="1.0 (4035a4fb49, 2020-05-01)"
   sodipodi:docname="nismo.svg"
   id="svg8"
   version="1.1"
   viewBox="0 0 192.756 192.756"
   height="2500"
   width="2500">
  <metadata
     id="metadata14">
    <rdf:RDF>
      <cc:Work
         rdf:about="">
        <dc:format>image/svg+xml</dc:format>
        <dc:type
           rdf:resource="http://purl.org/dc/dcmitype/StillImage" />
      </cc:Work>
    </rdf:RDF>
  </metadata>
  <defs
     id="defs12" />
  <sodipodi:namedview
     inkscape:current-layer="g6"
     inkscape:window-maximized="1"
     inkscape:window-y="212"
     inkscape:window-x="-8"
     inkscape:cy="1875.7285"
     inkscape:cx="1373.3606"
     inkscape:zoom="0.16857426"
     showgrid="false"
     id="namedview10"
     inkscape:window-height="745"
     inkscape:window-width="1360"
     inkscape:pageshadow="2"
     inkscape:pageopacity="0"
     guidetolerance="10"
     gridtolerance="10"
     objecttolerance="10"
     borderopacity="1"
     bordercolor="#666666"
     pagecolor="#ffffff" />
  <g
     id="g6"
     clip-rule="evenodd"
     fill-rule="evenodd">
    <rect
       y="1.6479491e-06"
       x="1.6479493e-06"
       height="192.756"
       width="192.756"
       id="rect25"
       style="fill:#ffebcd;stroke-width:0.0771024;fill-opacity:1" />
    <path
       id="path4"
       d="M2.834 71.474v49.81h14.124v-18.68l11.541 18.68h10.479v-49.81H23.033v22.019L11.036 71.474H2.834zm41.002 0v49.81h13.515v-49.81H43.836zm16.856 0v22.019l24.449 9.111v2.127l-24.449 16.553h38.572V98.656l-25.057-7.289v-2.126l25.057-17.767H60.692zm41.304 49.809h11.693l2.43-40.09h1.822l7.594 30.067 7.744-30.067h1.822l3.34 40.09h10.783l-5.012-49.81h-37.357l-4.859 49.81zm49.658 0v-49.81h38.268v49.81h-38.268zm12.756-13.971h11.996V83.926H164.41v23.386z" />
  </g>
</svg>
