<?xml version="1.0" encoding="UTF-8" standalone="no"?>
<svg
   xmlns:dc="http://purl.org/dc/elements/1.1/"
   xmlns:cc="http://creativecommons.org/ns#"
   xmlns:rdf="http://www.w3.org/1999/02/22-rdf-syntax-ns#"
   xmlns:svg="http://www.w3.org/2000/svg"
   xmlns="http://www.w3.org/2000/svg"
   xmlns:sodipodi="http://sodipodi.sourceforge.net/DTD/sodipodi-0.dtd"
   xmlns:inkscape="http://www.inkscape.org/namespaces/inkscape"
   inkscape:version="1.0 (4035a4fb49, 2020-05-01)"
   sodipodi:docname="ralliart.svg"
   id="svg16"
   version="1.1"
   viewBox="0 0 192.756 192.756"
   height="2500"
   width="2500">
  <metadata
     id="metadata22">
    <rdf:RDF>
      <cc:Work
         rdf:about="">
        <dc:format>image/svg+xml</dc:format>
        <dc:type
           rdf:resource="http://purl.org/dc/dcmitype/StillImage" />
      </cc:Work>
    </rdf:RDF>
  </metadata>
  <defs
     id="defs20" />
  <sodipodi:namedview
     inkscape:current-layer="svg16"
     inkscape:window-maximized="1"
     inkscape:window-y="212"
     inkscape:window-x="-8"
     inkscape:cy="1892.7695"
     inkscape:cx="1898.0774"
     inkscape:zoom="0.16857426"
     showgrid="false"
     id="namedview18"
     inkscape:window-height="745"
     inkscape:window-width="1360"
     inkscape:pageshadow="2"
     inkscape:pageopacity="0"
     guidetolerance="10"
     gridtolerance="10"
     objecttolerance="10"
     borderopacity="1"
     bordercolor="#666666"
     pagecolor="#ffffff" />
  <rect
     style="fill:#ffebcd;fill-opacity:1;stroke-width:0.0771024"
     id="rect16"
     width="192.756"
     height="192.756"
     x="0"
     y="-3.3798217e-06" />
  <g
     id="g14"
     clip-rule="evenodd"
     fill-rule="evenodd">
    <path
       id="path4"
       d="M8.504 74.378h175.748v44H8.504v-44z" />
    <path
       id="path6"
       fill="#fff"
       d="M54.485 79.536l-4.73 35.311h10.688l.35-4.893-4.38-.002 4.205-30.416h-6.133zM67.795 79.536l-4.73 35.311h10.688l.35-4.893-4.38-.002 4.205-30.416h-6.133zM81.105 79.536l-4.731 35.311 6.473.02 4.39-35.33-6.132-.001zM163.965 79.677l-.322 5.44h4.201l-3.854 29.73h6.598l3.74-29.73h4.61l.525-5.487-15.498.047z" />
    <path
       id="path8"
       fill="#cc2229"
       d="M91.253 79.659h2.165c.124 0 .213.102.199.226l-4.169 34.826a.263.263 0 0 1-.253.225h-2.164a.196.196 0 0 1-.198-.225l4.168-34.826a.262.262 0 0 1 .252-.226zM94.883 79.659h2.164c.125 0 .215.102.199.226l-4.169 34.826a.262.262 0 0 1-.252.225h-2.164a.197.197 0 0 1-.199-.225l4.169-34.826a.263.263 0 0 1 .252-.226zM102.143 79.659h2.164c.125 0 .215.102.199.226l-4.168 34.826a.264.264 0 0 1-.254.225H97.92a.195.195 0 0 1-.197-.225l4.168-34.826a.263.263 0 0 1 .252-.226zM98.514 79.659h2.164c.123 0 .213.102.199.226l-4.169 34.826a.263.263 0 0 1-.253.225h-2.164a.196.196 0 0 1-.198-.225l4.169-34.826a.26.26 0 0 1 .252-.226zM105.773 79.659h2.164c.123 0 .213.102.199.226l-4.17 34.826a.262.262 0 0 1-.252.225h-2.164a.197.197 0 0 1-.199-.225l4.17-34.826a.26.26 0 0 1 .252-.226z" />
    <path
       id="path10"
       fill="#db812e"
       d="M110.613 79.659h2.164c.123 0 .213.102.199.226l-4.17 34.826a.262.262 0 0 1-.252.225h-2.164a.197.197 0 0 1-.199-.225l4.17-34.826a.26.26 0 0 1 .252-.226zM114.242 79.659h2.164c.125 0 .215.102.199.226l-4.168 34.826a.264.264 0 0 1-.254.225h-2.164a.195.195 0 0 1-.197-.225l4.168-34.826a.264.264 0 0 1 .252-.226zM121.502 79.659h2.164c.125 0 .215.102.199.226l-4.168 34.826a.264.264 0 0 1-.254.225h-2.164a.195.195 0 0 1-.197-.225l4.168-34.826a.264.264 0 0 1 .252-.226zM117.873 79.659h2.164c.123 0 .213.102.199.226l-4.17 34.826a.262.262 0 0 1-.252.225h-2.164a.197.197 0 0 1-.199-.225l4.17-34.826a.26.26 0 0 1 .252-.226zM125.133 79.659h2.164c.125 0 .213.102.199.226l-4.17 34.826a.262.262 0 0 1-.252.225h-2.164a.197.197 0 0 1-.199-.225l4.17-34.826a.26.26 0 0 1 .252-.226z" />
    <path
       id="path12"
       fill="#fff"
       d="M149.012 79.621s7.033-.201 10.248.201c3.215.402 3.014 3.617 3.014 3.617s-1.205 11.854-1.406 12.859-2.412 1.206-1.406 1.607c1.004.401.803 1.809.803 1.809l-1.809 15.136-5.781.045 1.361-12.971c.209-1.995-2.338-1.303-2.412-.603l-1.406 13.528-6.027.023 4.821-35.251zm4.814 4.746l-1.076 10.969s2.008.49 2.203-1.175.783-9.745.783-9.745-.341-2.057-1.91-.049zM31.884 114.823h6.132l1.198-6.959h2.151l-.021 6.959h5.781l.526-35.315h-8.41l-7.357 35.315zm8.059-12.004h1.752l.701-14.091-2.453 14.091zM19.025 79.621s7.032-.201 10.248.201c3.215.402 3.014 3.617 3.014 3.617s-1.206 11.854-1.406 12.859c-.201 1.005-2.412 1.206-1.407 1.607s.804 1.809.804 1.809l-1.729 15.111h-5.906l1.406-12.901c.218-1.994-2.34-1.303-2.411-.603l-1.367 13.504-6.068-.042 4.822-35.162zm4.815 4.746l-1.077 10.969s2.008.49 2.204-1.175.783-9.745.783-9.745-.342-2.057-1.91-.049zM126.262 114.847h6.133l1.051-7.009h2.102l.176 7.009h5.781l.525-35.261h-8.465l-7.303 35.261zm8.058-12.089h1.752l.701-14.192-2.453 14.192z" />
  </g>
</svg>
